<svg width="317" height="112" viewBox="0 0 317 112" fill="none" xmlns="http://www.w3.org/2000/svg">
<path d="M94.7203 0H93.7803V111.82H94.7203V0Z" fill="#1E1E1E"></path>
<path d="M35.82 10.46L37.31 14.75L41.85 14.84L38.23 17.59L39.55 21.93L35.82 19.34L32.09 21.93L33.4 17.59L29.79 14.84L34.33 14.75L35.82 10.46Z" fill="#1E1E1E"></path>
<path d="M65.2901 17.34L64.7101 21.84L68.7301 23.95L64.2701 24.79L63.5001 29.27L61.3301 25.28L56.8301 25.94L59.9501 22.64L57.9401 18.57L62.0401 20.51L65.2901 17.34Z" fill="#1E1E1E"></path>
<path d="M13.8701 18.92L11.8601 22.99L14.9701 26.29L10.4801 25.63L8.30008 29.62L7.54008 25.14L3.08008 24.3L7.10008 22.19L6.52008 17.69L9.77008 20.86L13.8701 18.92Z" fill="#1E1E1E"></path>
<path d="M12.4301 80.27C12.1301 80.3 11.9201 80.56 11.9501 80.86C11.9801 81.16 12.2401 81.37 12.5401 81.34C12.5601 81.34 14.4201 81.16 16.2501 81.57C18.2001 82.01 20.9001 82.95 22.1801 83.48L22.3901 83.57C27.3501 85.62 28.4501 85.71 28.9301 85.16C29.7901 84.16 28.5101 82.98 28.0901 82.59C27.8701 82.39 27.5301 82.4 27.3301 82.62C27.2401 82.72 27.1901 82.85 27.1901 82.98C27.1901 83.13 27.2501 83.27 27.3601 83.38C28.0101 83.97 28.1301 84.25 28.1301 84.38C27.7301 84.39 26.5201 84.12 22.8001 82.58L22.5901 82.49C21.2701 81.95 18.5001 80.97 16.4801 80.52C14.4801 80.07 12.5101 80.26 12.4301 80.27Z" fill="#1E1E1E"></path>
<path d="M34.7698 77.07C34.7698 77.08 34.6498 78.19 34.1398 79.27C33.5998 80.42 31.7998 83.56 31.7798 83.59C31.6698 83.79 31.6898 84.04 31.8398 84.21C31.9898 84.38 32.2398 84.44 32.4498 84.36C32.4698 84.35 34.6098 83.5 35.3198 83.31L38.1598 82.6C38.4498 82.52 38.5498 82.24 38.4798 81.96C38.4098 81.67 38.1998 81.51 37.9098 81.56L35.0498 82.27C34.6998 82.36 34.0598 82.59 33.4698 82.81C34.0398 81.79 34.7898 80.43 35.1198 79.73C35.6998 78.47 35.8398 77.23 35.8398 77.18C35.8398 77.16 35.8398 77.14 35.8398 77.13C35.8398 76.86 35.6298 76.62 35.3598 76.59C35.0598 76.56 34.7998 76.77 34.7698 77.07Z" fill="#1E1E1E"></path>
<path d="M24.5998 88.23C24.5198 88.51 24.6898 88.81 24.9798 88.89C24.9898 88.89 26.1898 89.23 27.0198 90.12C27.4798 90.61 27.8998 91.57 28.0398 92.17C28.1498 92.68 28.2298 93.74 28.2298 93.75C28.2498 94.05 28.5098 94.27 28.7998 94.25C29.0998 94.23 29.3198 93.97 29.2998 93.68C29.2998 93.63 29.2198 92.52 29.0898 91.94C28.9298 91.19 28.4198 90.05 27.8098 89.39C26.7598 88.26 25.3198 87.86 25.2598 87.85C24.9698 87.78 24.6798 87.95 24.5998 88.23Z" fill="#1E1E1E"></path>
<path d="M53.2102 80.44C52.6402 81.05 52.8202 82.42 53.8502 85.3C54.2202 86.34 54.0102 87.11 53.8702 87.18C53.6802 87.28 53.0602 87.04 52.5902 86.51C52.5802 86.5 52.5802 86.5 52.5702 86.49C51.0502 84.92 50.2302 84.44 49.5702 84.7C48.8102 85 48.2502 87.03 47.9802 88.21C47.5402 90.15 47.2102 90.66 47.0302 90.79C46.8602 90.42 46.7302 89.33 46.7302 88.19C46.7302 87.97 46.7402 87.74 46.7502 87.52C46.7502 87.52 46.7502 87.48 46.7502 87.41C46.7502 86.8 46.6902 83.97 45.7602 83.63C44.7902 83.28 43.2502 84.86 43.2402 84.88C42.9202 85.23 41.2702 87.08 39.9902 89.47C38.8002 91.7 37.7802 94.49 37.7402 94.61C37.6402 94.89 37.7802 95.2 38.0602 95.3C38.3402 95.4 38.6502 95.26 38.7502 94.98C38.7602 94.95 39.7802 92.14 40.9402 89.98C42.1902 87.66 43.8502 85.82 44.0302 85.61C44.3902 85.21 45.0202 84.79 45.3202 84.68C45.5002 85.13 45.6802 86.4 45.6802 87.25C45.6802 87.33 45.6802 87.4 45.6702 87.47C45.6702 87.61 45.6602 87.89 45.6602 88.24C45.6602 89.31 45.7502 91.07 46.3402 91.66C46.5202 91.84 46.7502 91.93 46.9902 91.92C48.1502 91.86 48.6402 90.18 49.0302 88.45C49.3502 87.03 49.7702 86 49.9902 85.73C50.1502 85.78 50.6302 86.02 51.8102 87.24C51.8002 87.23 51.7902 87.23 51.7902 87.22C52.4702 88 53.5902 88.56 54.3902 88.13C54.9202 87.84 55.1402 87.18 55.1402 86.44C55.1402 85.95 55.0402 85.42 54.8802 84.95C54.1202 82.83 53.9702 81.88 53.9702 81.46C53.9702 81.28 54.0002 81.2 54.0102 81.17C54.3502 80.82 55.0802 80.83 56.4402 81.21C57.8302 81.6 59.5202 82.18 59.5302 82.19C59.8102 82.29 60.1202 82.14 60.2202 81.86C60.3202 81.58 60.1702 81.27 59.8902 81.18C59.8202 81.15 58.1502 80.58 56.7302 80.18C55.3702 79.8 54.0202 79.57 53.2102 80.44Z" fill="#1E1E1E"></path>
<path d="M46.1794 80.07C46.0294 80.77 46.1394 81.38 46.4994 81.89C46.9694 82.56 47.8194 82.89 48.4594 82.97C49.1694 83.06 50.5894 82.74 51.0294 82.11C51.3494 81.66 51.6294 80.75 51.6594 80.65C51.7394 80.37 51.5794 80.07 51.2994 79.98C51.0194 79.89 50.7194 80.05 50.6294 80.34C50.5294 80.66 50.3194 81.26 50.1494 81.49C49.9994 81.67 49.0794 81.97 48.5994 81.9C48.2794 81.86 47.6694 81.68 47.3694 81.26C47.1894 81.01 47.1394 80.69 47.2294 80.28C47.4794 79.08 48.8194 79.11 48.9694 79.12C49.2694 79.14 49.5194 78.91 49.5394 78.61C49.5594 78.31 49.3294 78.06 49.0394 78.04C48.2094 78 46.5394 78.36 46.1794 80.07Z" fill="#1E1E1E"></path>
<path d="M21.2503 61.33C21.2403 61.35 20.3503 62.94 20.0103 63.43C19.7303 63.84 18.5703 66.12 18.5703 66.63C18.5703 67.06 18.7703 67.4 21.3603 67.79C21.6503 67.84 21.9303 67.63 21.9703 67.34C21.9703 67.31 21.9803 67.28 21.9803 67.26C21.9803 67 21.7903 66.77 21.5203 66.73C20.8903 66.63 20.1603 66.49 19.7503 66.37C20.0003 65.73 20.6303 64.42 20.8903 64.04C21.2603 63.51 22.1503 61.93 22.1903 61.86C22.2303 61.78 22.2603 61.69 22.2603 61.6C22.2603 61.41 22.1603 61.23 21.9803 61.13C21.7203 60.98 21.3903 61.08 21.2503 61.33Z" fill="#1E1E1E"></path>
<path d="M24.1599 58.56C22.8399 59.83 22.8399 60.21 22.8399 60.37C22.8399 61.02 23.5399 61.44 24.1999 61.5L24.4899 61.52C25.3799 61.56 25.7299 61.65 25.8599 61.73C25.8599 61.84 25.8699 62.12 25.8699 62.12C25.8699 62.25 25.8799 62.42 25.8799 62.57C25.8799 62.66 25.8799 62.73 25.8699 62.8C25.7099 62.77 25.4799 62.69 25.3299 62.65C24.7699 62.48 24.3299 62.34 23.9699 62.52C23.5299 62.74 23.4799 63.25 23.3999 64.03C23.3499 64.51 23.2899 65.1 23.1399 65.72C23.0699 66 23.0399 66.31 23.0399 66.63C23.0399 67.44 23.2399 68.27 23.5099 68.63C23.5099 68.63 23.5999 68.75 23.6199 68.78C23.3699 68.79 22.8299 68.76 21.4499 68.53C21.1599 68.48 20.8799 68.68 20.8299 68.97C20.7799 69.26 20.9799 69.54 21.2699 69.59C23.4199 69.94 23.8399 69.88 24.1899 69.76L24.2199 69.75C24.6199 69.68 24.7799 69.43 24.8299 69.29C24.8699 69.2 24.8799 69.11 24.8799 69.02C24.8799 68.66 24.6299 68.33 24.4199 68.05L24.3699 67.98C24.2799 67.86 24.1099 67.26 24.1099 66.63C24.1099 66.41 24.1299 66.18 24.1799 65.98C24.3499 65.28 24.4199 64.65 24.4699 64.14C24.4899 63.94 24.5199 63.7 24.5399 63.54C24.6899 63.58 24.8699 63.63 25.0099 63.68C25.4499 63.82 25.8699 63.95 26.2099 63.89C26.8499 63.77 26.9599 63.14 26.9599 62.54C26.9599 62.38 26.9499 62.23 26.9499 62.08L26.9399 61.66C26.9399 60.58 25.3799 60.5 24.5499 60.46L24.3199 60.45C24.1899 60.44 24.0899 60.4 24.0099 60.36C24.1799 60.13 24.5399 59.72 24.9199 59.36C25.0299 59.25 25.0899 59.11 25.0899 58.97C25.0899 58.84 25.0399 58.7 24.9399 58.6C24.7099 58.36 24.3699 58.35 24.1599 58.56Z" fill="#1E1E1E"></path>
<path d="M19.8499 55.75C19.5299 56.25 19.7099 56.89 19.9199 57.35C20.1999 57.95 21.1899 58.67 21.4899 58.87C21.7299 59.04 22.0699 58.98 22.2399 58.73C22.2999 58.64 22.3299 58.53 22.3299 58.43C22.3299 58.26 22.2499 58.0901 22.0999 57.9901C21.5999 57.6501 20.9999 57.1301 20.8999 56.9001C20.7899 56.6501 20.7599 56.48 20.7599 56.39C20.7599 56.37 20.7599 56.36 20.7699 56.35C20.7899 56.34 20.8499 56.32 20.9799 56.32C21.8399 56.32 23.3199 56.58 25.5099 57.84C27.6999 59.09 33.1899 62.76 36.2899 65.28C39.4899 67.88 42.3499 70.35 43.7299 71.74C44.6699 72.68 46.0799 74.08 46.0799 74.52C46.0799 74.53 46.0799 74.5301 46.0799 74.5401C46.0599 74.7201 46.0599 74.76 45.4299 74.96L45.0499 75.09C43.9699 75.47 43.4199 76 43.4199 76.67C43.4199 76.88 43.4899 77.14 43.5599 77.43C43.6199 77.65 43.7299 78.08 43.7299 78.31C43.7299 78.36 43.7199 78.4 43.7099 78.43C43.5399 78.67 43.1499 78.68 42.6199 78.67C42.3199 78.66 42.0399 78.6501 41.7899 78.7301C41.5899 78.7901 41.3899 78.91 41.1699 79.03C40.8499 79.21 40.3599 79.48 40.1899 79.34C39.9999 79.18 39.8999 78.92 39.8999 78.53C39.8999 78.28 39.9399 77.9801 40.0199 77.6101L40.2299 76.78C40.3599 76.28 40.4599 75.9101 40.4599 75.6201C40.4599 75.4701 40.4399 75.3501 40.3799 75.2301C40.2399 74.9401 39.9299 74.8201 39.1699 74.5401C38.8299 74.4201 38.1999 74.1801 38.0599 74.0501C37.9499 73.9001 37.8899 73.6001 37.8899 73.2301C37.8899 73.1201 37.8999 73.0101 37.8999 72.9001C37.9299 72.5701 38.0999 71.8101 38.1599 71.5501C38.1699 71.5101 38.1799 71.47 38.1799 71.42C38.1799 71.18 38.0099 70.9601 37.7699 70.9001C37.4799 70.8301 37.1899 71.0101 37.1199 71.3001C37.0899 71.4001 36.8699 72.3401 36.8299 72.8001C36.8199 72.9401 36.8099 73.09 36.8099 73.24C36.8099 73.75 36.8999 74.3201 37.2199 74.7301C37.4699 75.0401 37.9799 75.2501 38.7999 75.5501C38.9699 75.6101 39.2099 75.7 39.3699 75.77C39.3399 75.96 39.2599 76.26 39.1899 76.5L38.9799 77.38C38.9199 77.62 38.8299 78.04 38.8299 78.5C38.8299 79.08 38.9799 79.72 39.5199 80.17C40.2599 80.77 41.1699 80.26 41.7099 79.96C41.8699 79.87 42.0299 79.78 42.1199 79.75C42.1999 79.72 42.4299 79.73 42.6099 79.74C43.2099 79.76 44.1099 79.78 44.6199 79.03C44.9699 78.52 44.7899 77.8001 44.6199 77.1601C44.5799 76.9901 44.5099 76.7401 44.5099 76.6601C44.5099 76.6001 44.6799 76.36 45.4199 76.1L45.7599 75.9801C46.3699 75.7901 47.0499 75.5701 47.1599 74.6601C47.2599 73.7701 46.3199 72.7801 44.5099 70.9701C43.0999 69.5601 40.2199 67.05 36.9799 64.43C33.8399 61.89 28.2699 58.1601 26.0499 56.9001C23.6499 55.5301 21.9799 55.2401 20.9899 55.2401C20.3199 55.2401 19.9999 55.52 19.8499 55.75Z" fill="#1E1E1E"></path>
<path d="M35.1602 71.54C35.0902 71.14 35.0202 70.69 35.0002 70.39L35.0102 69.69C35.0202 69.51 35.0202 69.35 35.0202 69.2C35.0202 68.69 34.9602 68.33 34.6502 68.12C34.6502 68.12 34.3902 67.96 34.1002 67.77C33.7902 67.56 33.6402 67.29 33.8402 66.82C33.8902 66.64 34.1702 65.96 34.3302 65.57C34.3602 65.5 34.3702 65.43 34.3702 65.36C34.3702 65.19 34.2902 65.03 34.1502 64.92L31.4002 62.92L30.0102 61.89C30.0102 61.89 30.3202 66.34 30.3502 66.7C30.0902 67.04 29.5302 67.8 29.3602 68.11C29.1302 68.53 28.7902 68.78 28.3402 68.87L26.6102 69.18C26.3702 69.22 26.0902 69.51 26.1502 69.8C26.2002 70.09 26.5002 70.25 26.7902 70.24L28.5502 69.92C29.3102 69.77 29.9102 69.32 30.3002 68.62C30.4302 68.38 31.0002 67.61 31.3302 67.18C31.4002 67.09 31.4402 66.97 31.4402 66.85C31.4402 66.84 31.4402 66.82 31.4402 66.81C31.4402 66.81 31.3302 65.25 31.2502 64.12C32.0502 64.7 32.8102 65.26 33.1802 65.53C33.0402 65.87 32.8602 66.31 32.8102 66.51C32.7502 66.71 32.6502 67.01 32.6402 67.32C32.6302 67.67 32.8302 68.15 33.2402 68.46C33.2402 68.46 33.6102 68.7 33.7902 68.82C33.9202 68.88 33.9602 69.08 33.9602 69.19C33.9602 69.34 33.9502 69.51 33.9502 69.65V70.46C33.9702 70.82 34.0502 71.29 34.1202 71.72C34.1602 71.97 34.2102 72.3 34.2202 72.45C34.1502 72.56 33.9802 72.8 33.8302 73C33.3802 73.6 32.7702 74.43 32.4102 75.2L32.0002 76.13C31.7802 76.64 31.5102 77.27 31.3602 77.38C31.1602 77.5 30.1802 77.68 29.5902 77.79L28.5402 78C27.9702 78.13 27.2302 78.43 26.6502 78.67C26.3902 78.78 26.0702 78.91 25.9502 78.94C25.8002 78.93 25.3302 78.78 25.0202 78.68C24.5902 78.54 24.1102 78.39 23.6902 78.31C23.3202 78.24 23.2502 78.23 23.2502 78.01C23.2502 77.96 23.2502 77.89 23.2602 77.8C23.2602 77.77 23.2602 77.75 23.2602 77.72C23.2602 77.14 22.7902 76.55 21.7902 75.88C21.3402 75.58 20.6102 74.89 20.5602 74.3C20.5602 74.28 20.5602 74.26 20.5602 74.24C20.5602 73.75 21.0402 73.21 21.4302 72.77L21.7602 72.39C21.9602 72.13 22.0402 71.87 22.0402 71.62C22.0402 71.58 22.0302 71.54 22.0202 71.5C22.5302 71.53 23.0502 71.56 23.0502 71.56C23.3502 71.58 23.6002 71.35 23.6202 71.06C23.6402 70.76 23.4102 70.51 23.1202 70.49L21.2202 70.37C21.0002 70.35 20.8002 70.48 20.7002 70.68C20.6702 70.75 20.6502 70.83 20.6502 70.91C20.6502 71.05 20.7002 71.18 20.8002 71.29C20.8202 71.31 20.9602 71.46 20.9602 71.61C20.9602 71.65 20.9502 71.69 20.9202 71.73L20.6302 72.07C20.1402 72.62 19.4902 73.36 19.4902 74.25C19.4902 74.3 19.4902 74.35 19.5002 74.41C19.6102 75.7 21.0402 76.68 21.2002 76.79C22.1602 77.43 22.1902 77.73 22.1902 77.73C22.1802 77.81 22.1802 77.89 22.1802 77.97C22.1802 78.6 22.4002 79.17 23.5002 79.37C23.8502 79.43 24.3002 79.58 24.7002 79.71C25.4502 79.95 25.8502 80.07 26.1702 80C26.3502 79.96 26.6102 79.85 27.0602 79.67C27.6102 79.44 28.3002 79.16 28.7902 79.05L29.7902 78.85C30.9002 78.64 31.5902 78.51 31.9102 78.31C32.3502 78.05 32.6002 77.46 32.9902 76.56L33.3902 75.65C33.7002 74.98 34.2802 74.2 34.7002 73.63C35.1402 73.05 35.2602 72.87 35.3002 72.66C35.3102 72.62 35.3102 72.57 35.3102 72.51C35.2902 72.32 35.2502 72.06 35.1602 71.54Z" fill="#1E1E1E"></path>
<path d="M38.5095 47.5C36.8895 48.08 34.8995 49.17 33.5095 49.98C31.7895 50.98 29.7595 52.05 28.5795 52.57C27.2395 53.16 25.1895 53.8101 24.8095 53.8101C24.5095 53.8101 24.2695 54.04 24.2695 54.34C24.2695 54.64 24.4995 54.88 24.7995 54.89C25.5295 54.9 27.9395 54.0301 29.0195 53.5601C30.2395 53.0201 32.3095 51.94 34.0595 50.91C35.9995 49.78 37.6695 48.95 38.8895 48.52C40.2595 48.02 41.7595 47.5501 43.5495 47.6501C45.4395 47.7601 46.0495 48.0001 46.7495 48.2901C47.4895 48.5901 48.6395 49.2801 48.6495 49.2901C48.9095 49.4401 49.2395 49.36 49.3895 49.11C49.5395 48.86 49.4595 48.53 49.2095 48.37C49.1595 48.34 47.9795 47.6301 47.1695 47.2901C46.3095 46.9401 45.5395 46.68 43.6195 46.57C41.6095 46.46 39.9295 46.99 38.5095 47.5Z" fill="#1E1E1E"></path>
<path d="M5.56988 57.58L5.00988 59.59L2.15988 57.68L2.16988 57.66L5.56988 57.58ZM7.31988 63.8L7.92988 61.62L6.38988 60.51L7.22988 57.5L9.10988 57.38L9.75988 55.03L0.859884 55.88L0.129883 58.51L7.31988 63.8Z" fill="#1E1E1E"></path>
<path d="M11.4401 54.79C11.6901 54.42 11.9501 53.64 12.0201 53.23C12.1301 52.58 12.1901 51.9 11.0701 51.12L5.12012 47.05L6.40012 45.23L12.9001 49.68C14.3701 50.71 14.9701 52.1 13.8501 53.74C13.6201 54.08 13.3101 54.53 13.3101 54.53L11.4401 54.79Z" fill="#1E1E1E"></path>
<path d="M18.0903 40.75L16.4003 41.9701L15.3603 38.7001L15.3803 38.69L18.0903 40.75ZM15.5903 46.7001L17.4203 45.3801L16.9103 43.55L19.4503 41.7201L21.0003 42.8L22.9803 41.37L15.4903 36.4901L13.2803 38.09L15.5903 46.7001Z" fill="#1E1E1E"></path>
<path d="M26.6298 35.5701L23.3398 32.3001L25.8598 31.6801L27.8698 34.0201L28.6098 31.0101L30.9798 30.4301L29.5498 34.8501L33.1998 38.4801L30.6198 39.1101L28.3198 36.5101L27.4998 39.8701L25.0498 40.4701L26.6298 35.5701Z" fill="#1E1E1E"></path>
<path d="M49.8398 95.5H49.8298L50.1198 98.36L49.6898 98.55L47.7898 96.41L47.7798 96.42L48.8898 98.91L48.3498 99.15L47.0098 96.17L47.9098 95.76L49.5898 97.69H49.5998L49.2898 95.15L50.1598 94.76L51.4898 97.74L50.9498 97.99L49.8398 95.5Z" fill="#1E1E1E"></path>
<path d="M53.1696 96.06C53.3096 96.06 53.5896 96.03 53.8596 95.86C54.0796 95.72 54.1996 95.47 54.0296 95.19C53.9096 94.99 53.7396 94.98 53.3996 95L53.0496 95.02C52.6796 95.04 52.3696 94.94 52.1396 94.58C51.8296 94.08 52.0696 93.57 52.5296 93.28C52.8196 93.09 53.0796 93.04 53.1696 93.01L53.4096 93.45C53.2596 93.48 53.0496 93.51 52.8196 93.66C52.5596 93.82 52.5196 94.04 52.6396 94.23C52.7696 94.44 52.9596 94.43 53.1696 94.42L53.5696 94.4C54.0096 94.38 54.2796 94.45 54.5196 94.84C54.8796 95.4 54.6496 95.92 54.1196 96.26C53.8396 96.44 53.5996 96.53 53.4096 96.54L53.1696 96.06Z" fill="#1E1E1E"></path>
<path d="M55.3202 91.96L54.7502 92.42L54.4502 92.04L56.0602 90.76L56.3602 91.13L55.7902 91.59L57.5302 93.77L57.0602 94.14L55.3202 91.96Z" fill="#1E1E1E"></path>
<path d="M57.21 89.73L58.43 88.52L58.76 88.85L57.97 89.65L58.58 90.26L59.33 89.52L59.67 89.86L58.92 90.6L59.6 91.29L60.43 90.47L60.77 90.81L59.51 92.05L57.21 89.73Z" fill="#1E1E1E"></path>
<path d="M44.3798 99.09L44.4098 97.5001H44.4198L45.2198 98.8601L44.3798 99.09ZM45.8998 99.9601L46.4998 99.7901L44.6098 96.9201L43.9798 97.1001L43.7998 100.54L44.3798 100.38L44.3898 99.5601L45.4698 99.2601L45.8998 99.9601ZM61.0498 87.6901L60.2998 87.09L60.4498 86.9001C60.6598 86.6401 60.8598 86.5401 61.1498 86.7701C61.4098 86.9801 61.3998 87.2501 61.1998 87.5001L61.0498 87.6901ZM62.1098 89.3201L62.4898 88.8501L61.3898 87.9701L61.4798 87.8701C61.6198 87.7001 61.7798 87.6301 62.0298 87.7301L63.0598 88.1401L63.4598 87.6401L62.2198 87.1901C61.9198 87.0801 61.7898 87.1501 61.6998 87.2301L61.6898 87.2201C61.8698 86.9001 61.8198 86.5101 61.4898 86.2501C61.0198 85.8701 60.5698 86.0201 60.2098 86.4701L59.5698 87.2701L62.1098 89.3201ZM62.4898 84.0701L62.5998 83.9001C62.9498 83.3201 63.4998 83.3101 64.1198 83.6801C64.7298 84.0601 64.9598 84.5601 64.5998 85.1301L64.4998 85.3001L62.4898 84.0701ZM64.5698 86.0501L65.0198 85.3301C65.4998 84.5601 65.3898 83.7201 64.4498 83.1401C63.5298 82.5701 62.7698 82.7401 62.2398 83.6101L61.7898 84.34L64.5698 86.0501ZM65.8498 81.2301L64.6498 80.1901V80.1801L66.2098 80.4401L65.8498 81.2301ZM67.4898 80.6401L67.7498 80.0801L64.3398 79.6801L64.0698 80.2801L66.5898 82.6401L66.8398 82.09L66.2198 81.5501L66.6898 80.5301L67.4898 80.6401Z" fill="#1E1E1E"></path>
<path d="M66.6196 74.77V74.78L68.9896 76.4L68.8596 76.85L65.9996 76.92L65.9896 76.93L68.6196 77.69L68.4496 78.26L65.3096 77.35L65.5796 76.41L68.1296 76.37L68.1396 76.36L65.9996 74.96L66.2596 74.04L69.3996 74.95L69.2396 75.52L66.6196 74.77Z" fill="#1E1E1E"></path>
<path d="M4.88965 67.02C4.88965 84.25 18.9096 98.27 36.1396 98.27C38.0096 98.27 39.8796 98.1 41.7096 97.78L41.6596 97.51C39.8496 97.84 37.9896 98 36.1396 98C19.0596 98 5.15965 84.1 5.15965 67.02H4.88965Z" fill="#1E1E1E"></path>
<path d="M36.1396 36.04C53.2196 36.04 67.1197 49.94 67.1197 67.02C67.1197 68.84 66.9597 70.67 66.6497 72.45L66.9196 72.5C67.2396 70.7 67.3997 68.86 67.3997 67.02C67.3997 49.79 53.3797 35.76 36.1497 35.76V36.04" fill="#1E1E1E"></path>
<path d="M2.82031 67.02C2.82031 85.39 17.7703 100.34 36.1403 100.34C38.1303 100.34 40.1303 100.16 42.0803 99.81L41.8603 98.56C39.9903 98.9 38.0603 99.07 36.1403 99.07C18.4703 99.07 4.09031 84.69 4.09031 67.02H2.82031Z" fill="#1E1E1E"></path>
<path d="M36.1396 34.97C53.8096 34.97 68.1897 49.35 68.1897 67.02C68.1897 68.91 68.0296 70.8 67.6996 72.65L68.9496 72.87C69.2896 70.95 69.4596 68.99 69.4596 67.02C69.4596 48.65 54.5096 33.7 36.1396 33.7V34.97Z" fill="#1E1E1E"></path>
<path d="M1.7998 67.02C1.7998 85.96 17.2098 101.36 36.1398 101.36C38.1898 101.36 40.2498 101.18 42.2598 100.82L42.2098 100.55C40.2198 100.91 38.1798 101.09 36.1398 101.09C17.3498 101.09 2.06981 85.81 2.06981 67.02H1.7998Z" fill="#1E1E1E"></path>
<path d="M36.1396 32.9501C54.9196 32.9501 70.2096 48.23 70.2096 67.0201C70.2096 69.0301 70.0297 71.0401 69.6897 73.0001L69.9596 73.0501C70.3096 71.0801 70.4896 69.0501 70.4896 67.0201C70.4896 48.08 55.0797 32.6801 36.1497 32.6801V32.9501" fill="#1E1E1E"></path>
<path d="M51.91 45.06L51.78 50.97C51.78 51.15 51.8699 51.32 52.0199 51.43C52.0299 51.44 53.38 52.36 54.1 53.4C54.8 54.42 54.97 55.63 54.98 55.64C55.02 55.93 55.2899 56.14 55.5899 56.1C55.8599 56.06 56.05 55.83 56.05 55.57C56.05 55.54 56.05 55.52 56.05 55.5C56.04 55.44 55.84 54.03 54.99 52.79C54.35 51.85 53.33 51.05 52.87 50.71C52.88 50.33 52.93 47.83 52.96 46.56C56.82 48.18 58.8399 51.51 58.8399 56.44C58.8399 63.5 54.5199 68.42 48.3399 68.42C42.7199 68.42 40.81 63.75 39.54 60.65L39.11 59.64C38.69 58.7 38.07 58.06 37.26 57.76C35.73 57.18 34 57.99 33.34 58.29C33.07 58.41 32.95 58.73 33.08 59C33.2 59.27 33.52 59.39 33.79 59.26C34.33 59.01 35.77 58.35 36.88 58.76C37.42 58.96 37.83 59.39 38.13 60.08L38.54 61.07C39.84 64.22 41.9999 69.5 48.3399 69.5C55.1599 69.5 59.92 64.13 59.92 56.44C59.9 50.5 57.1 46.58 51.91 45.06Z" fill="#1E1E1E"></path>
<path d="M212.88 74.13C212.33 73.83 212.04 73.4 212.04 72.77C212.04 69.97 216.77 63.66 221.64 60.9C221.42 62.81 221.29 64.87 221.31 66.36C218.48 70.09 215.07 73.01 212.88 74.13ZM279.35 41.98C279.84 44.53 277.76 52.46 272.04 60.96C272.86 54.2 275.56 46.46 279.35 41.98ZM137.53 38.06C139.29 38.06 140.63 38.7 141.23 39.89C143.25 40.13 150.84 35.55 150.84 32.23C150.84 30.62 149.17 29.42 146 29.42C137.4 29.42 125.48 37.02 125.48 43.96C125.48 52.33 135.26 64.12 135.26 69.13C135.26 71.02 133.22 72.46 129.88 72.44C127.65 72.43 125.68 71.43 125.3 70.05C121.89 69.75 114.97 74.35 114.97 78.15C114.97 80.06 116.85 81.1 120.36 81.1C128.59 81.1 144.35 73.68 144.35 66.5C144.35 58.68 133.2 47.28 133.2 41.04C133.2 39.35 134.73 38.06 137.53 38.06ZM296.25 70.96C296.44 66.74 295.49 60.83 297.31 56.74C297.22 56.31 296.41 56.07 295.31 56.07C292.79 56.07 291.51 56.77 290.14 58.68C282.62 69.2 278.03 73.53 275.18 73.53C273.42 73.53 272.09 71.67 271.83 66.88C278.86 58.68 284.69 47.75 284.69 40.85C284.69 37.66 283.56 35.8 280.4 34.9C278.99 34.5 278.1 34.5 277.65 34.74C269.56 41.59 265.69 55.69 265.89 66.53C262.47 70.53 259.49 72.52 258.08 72.52C256.93 72.52 255.92 71.11 255.98 66.11C255.55 65.9 254.66 65.74 253.94 65.74C251.96 65.74 251.11 66.17 249.58 67.24C246.4 69.47 242.53 72.97 240.15 75.67C241.64 69.93 249.68 62.02 256.63 59.97C256.86 59.05 255.19 55.2 252.78 55.2C251.02 55.2 246.45 57.13 241.48 62.09C236.88 66.69 233.65 71.7 230.19 71.7C228.39 71.7 227.08 69.78 227.07 65.23C231.02 57.87 236.03 43.74 236.03 37.95C236.03 36.56 235.55 35.66 234.43 34.98C233.72 34.54 232.78 34.19 231.89 34.1C227.41 38.29 223.71 48.37 222.12 57.55C221.35 56.54 220.36 56.03 219.31 56.03C217.87 56.03 215.32 57.42 212.56 60.17C208.02 64.71 205.26 70.69 202.73 70.69C200.67 70.69 198.56 67.16 197.36 57.75C197.13 57.6 196.63 57.48 196.08 57.48C194.34 57.48 193.69 57.96 192.78 59.53C190.06 64.24 187.06 68.54 183.72 72.41C185.76 66.55 187.04 60.57 187.04 58.43C187.04 56.49 183.06 55.48 181.75 55.86C176.88 66.82 171.36 72.78 169.03 72.78C167.61 72.78 166.72 71.2 166.78 66.05C166.35 65.83 165.46 65.67 164.74 65.67C162.87 65.67 162.01 66.04 160.38 67.22C157.2 69.52 153.33 73.12 150.95 75.9C152.43 69.99 160.45 61.64 167.39 59.5C167.76 58.51 166.02 54.58 163.56 54.58C161.74 54.58 157.54 56.64 153.63 60.55C148.59 65.59 144.85 72.56 144.85 77.39C144.85 79.36 148.63 81.73 150.17 81.69C152.71 78.62 157.76 74.19 161.07 72.05C161.61 77.58 163.85 79.85 165.83 79.85C169.23 79.85 174.88 74.08 178.64 67.8C177.74 71.46 176.66 75.42 175.95 77.78C176.58 78.94 178.67 80.38 180.3 80.38C181.89 80.38 188.15 73.08 192.49 66.59C193.19 72.87 196.09 78.15 199.14 78.15C201.24 78.15 203.21 76.22 205.51 73.14C204.96 76.59 207.13 79.19 210.92 80.56C213.04 79.86 218 75.78 221.73 71.02C222.66 75.65 224.86 78.26 226.99 78.26C228.92 78.26 231.42 76.87 234.58 73.68C234.22 74.9 234.03 76.06 234.03 77.12C234.03 79.05 237.78 81.33 239.35 81.3C241.89 78.32 246.94 74.02 250.25 71.94C250.79 77.26 253.07 79.52 255.23 79.52C257.76 79.52 261.79 76.53 266.32 71.49C267.42 77.48 270.32 79.64 273.34 79.64C276.99 79.64 282.2 75.54 289.86 64.96C289.61 67.74 290.41 71.77 289.97 73.28C286.36 75.09 283.97 76.97 283.23 78.07C283.34 79.67 284.3 81.12 286.28 81.12C289.78 81.12 293.76 78.79 295.42 74.89C297.25 74.39 299.27 74.14 300.83 74.14C304.79 74.14 307.78 75.46 308.38 77.97C309.39 78.35 312.35 77.21 314.51 75.05C315.7 73.86 316.26 72.76 316.26 71.82C316.26 70.18 314.5 68.78 310.17 68.78C305 68.76 300.27 69.67 296.25 70.96ZM304.25 78.63C304.25 78.2 303.96 77.91 303.4 77.91H302.64V80.23H302.95V79.35H303.4L303.95 80.23H304.32L303.74 79.31C304.06 79.21 304.25 78.97 304.25 78.63ZM303.4 79.07H302.96V78.19H303.4C303.77 78.19 303.93 78.37 303.93 78.63C303.93 78.9 303.77 79.07 303.4 79.07ZM303.36 77.07C302.24 77.07 301.32 77.93 301.32 79.09C301.32 80.24 302.25 81.1 303.36 81.1C304.49 81.1 305.43 80.24 305.43 79.09C305.43 77.93 304.49 77.07 303.36 77.07ZM303.36 80.83C302.37 80.83 301.65 80.12 301.65 79.09C301.65 78.05 302.37 77.34 303.36 77.34C304.37 77.34 305.11 78.05 305.11 79.09C305.1 80.12 304.37 80.83 303.36 80.83Z" fill="#1E1E1E"></path>
<path d="M173.51 89.72H177.94C179.19 89.72 180.17 90.09 180.81 90.71C181.34 91.25 181.63 91.99 181.63 92.85V92.88C181.63 94.51 180.65 95.49 179.26 95.89L181.94 99.65H179.88L177.44 96.18H175.25V99.65H173.5V89.72M177.81 94.65C179.06 94.65 179.86 94 179.86 92.99V92.96C179.86 91.89 179.09 91.31 177.8 91.31H175.26V94.65H177.81Z" fill="#1E1E1E"></path>
<path d="M186.62 89.72H193.99V91.28H188.36V93.86H193.35V95.43H188.36V98.1H194.06V99.66H186.62V89.72Z" fill="#1E1E1E"></path>
<path d="M198.3 98.21L199.35 96.96C200.3 97.78 201.25 98.25 202.49 98.25C203.57 98.25 204.25 97.75 204.25 97V96.97C204.25 96.26 203.85 95.88 202.01 95.45C199.89 94.94 198.7 94.31 198.7 92.48V92.45C198.7 90.75 200.12 89.57 202.09 89.57C203.54 89.57 204.69 90.01 205.7 90.82L204.76 92.14C203.86 91.47 202.97 91.12 202.06 91.12C201.04 91.12 200.44 91.64 200.44 92.3V92.33C200.44 93.1 200.9 93.44 202.8 93.89C204.9 94.4 206 95.15 206 96.8V96.83C206 98.69 204.54 99.8 202.45 99.8C200.93 99.8 199.5 99.28 198.3 98.21Z" fill="#1E1E1E"></path>
<path d="M210.46 94.72V94.69C210.46 91.89 212.62 89.55 215.67 89.55C218.72 89.55 220.85 91.87 220.85 94.66V94.69C220.85 97.49 218.69 99.83 215.64 99.83C212.59 99.83 210.46 97.51 210.46 94.72ZM219.03 94.72V94.69C219.03 92.76 217.62 91.15 215.65 91.15C213.68 91.15 212.3 92.73 212.3 94.66V94.69C212.3 96.62 213.71 98.23 215.68 98.23C217.65 98.23 219.03 96.65 219.03 94.72Z" fill="#1E1E1E"></path>
<path d="M225.81 89.72H230.24C231.49 89.72 232.47 90.09 233.11 90.71C233.63 91.25 233.93 91.99 233.93 92.85V92.88C233.93 94.51 232.95 95.49 231.56 95.89L234.24 99.65H232.18L229.74 96.18H227.55V99.65H225.8V89.72M230.12 94.65C231.37 94.65 232.17 94 232.17 92.99V92.96C232.17 91.89 231.4 91.31 230.11 91.31H227.57V94.65H230.12Z" fill="#1E1E1E"></path>
<path d="M241.32 91.34H238.17V89.72H246.24V91.34H243.08V99.66H241.32V91.34Z" fill="#1E1E1E"></path>
<path d="M250.04 98.21L251.09 96.96C252.04 97.78 252.99 98.25 254.23 98.25C255.31 98.25 255.99 97.75 255.99 97V96.97C255.99 96.26 255.59 95.88 253.75 95.45C251.63 94.94 250.44 94.31 250.44 92.48V92.45C250.44 90.75 251.86 89.57 253.83 89.57C255.28 89.57 256.43 90.01 257.44 90.82L256.5 92.14C255.6 91.47 254.71 91.12 253.8 91.12C252.78 91.12 252.18 91.64 252.18 92.3V92.33C252.18 93.1 252.63 93.44 254.54 93.89C256.64 94.4 257.74 95.15 257.74 96.8V96.83C257.74 98.69 256.28 99.8 254.19 99.8C252.67 99.8 251.24 99.28 250.04 98.21Z" fill="#1E1E1E"></path>
</svg>