<svg width="1000px" height="675px" viewBox="0 0 1000 675" version="1.1" xmlns="http://www.w3.org/2000/svg" xmlns:xlink="http://www.w3.org/1999/xlink">
    <title>Adidas_Logo</title>
    <g id="Page-1" stroke="none" stroke-width="1" fill="none" fill-rule="evenodd">
        <g id="Adidas_Logo" fill="#000000">
            <polyline id="path2405" fill-rule="nonzero" points="654.500241 442.193628 448.882084 84.846251 596.598497 0 852.283585 442.193628 654.500241 442.193628"></polyline>
            <polyline id="path2407" fill-rule="nonzero" points="106.822085 392.126806 254.538499 306.707402 332.696326 442.193628 135.486332 442.193628 106.822085 392.126806"></polyline>
            <polygon id="path2409" fill-rule="nonzero" points="396.713172 670.169739 438.754 670.169739 438.754 500.095427 396.713172 500.095427"></polygon>
            <path d="M923.562049,674.182858 C876.552636,674.182858 848.270464,649.913818 846.741775,615.707766 L891.075928,615.707766 C891.075928,626.409123 897.76424,642.078855 926.428514,642.652217 C945.537998,642.652217 954.519412,631.377483 954.519412,622.969367 C953.372756,609.592736 936.556361,608.446081 918.593533,605.579701 C900.630705,602.713237 885.343068,599.464671 874.259533,593.731828 C860.118343,586.470213 850.563636,570.800495 850.563636,552.837676 C850.563636,522.453398 876.934738,498.375633 920.886635,498.375633 C963.500826,498.375633 990.445291,520.733659 993.311756,553.984108 L950.506291,553.984108 C950.124189,545.002698 948.404393,530.861738 923.179738,530.861738 C906.172291,530.861738 894.897775,534.301271 893.942171,546.149353 C893.942171,563.53881 929.294896,562.392378 956.812514,569.65384 C983.183603,576.342301 999.999998,592.776433 999.999998,615.707766 C999.999998,657.939833 965.793928,674.182858 923.562049,674.182858" id="path2411" fill-rule="nonzero"></path>
            <polyline id="path2415" fill-rule="nonzero" points="279.954122 240.397555 427.670535 155.169216 593.34986 442.193628 438.754 442.193628 438.754 484.234435 396.713172 484.234435 396.713172 442.002577 279.954122 240.397555"></polyline>
            <path d="M283.776052,674.182858 C234.855708,674.182858 195.107955,634.243877 195.107955,585.897073 C195.107955,536.976683 234.855708,498.375633 283.776052,498.375633 C302.312256,498.375633 319.128568,503.343923 333.842912,513.471988 L333.842912,442.193628 L375.88381,442.193628 L375.88381,670.169739 L333.842912,670.169739 L333.842912,658.895228 C319.128568,668.45 302.312256,674.182858 283.776052,674.182858 L283.776052,674.182858 Z M235.429001,585.897073 C235.429001,612.268009 257.978201,634.243877 284.922568,634.243877 C311.29367,634.243877 333.842912,612.268009 333.842912,585.897073 C333.842912,559.525914 311.29367,536.976683 284.922568,536.976683 C257.978201,536.976683 235.429001,559.525914 235.429001,585.897073" id="path2417"></path>
            <path d="M594.496446,442.193628 L635.964051,442.193628 L635.964051,670.169739 L594.496446,670.169739 L594.496446,658.895228 C580.355395,668.45 562.96579,674.182858 543.856293,674.182858 C495.509242,674.182858 455.761516,634.243877 455.761516,585.897073 C455.761516,536.976683 495.509242,498.375633 543.856293,498.375633 C562.96579,498.375633 579.782102,503.343923 594.496446,513.471988 L594.496446,442.193628 L594.496446,442.193628 Z M496.655828,585.897073 C496.655828,612.268009 519.205,634.243877 545.002879,634.243877 C571.947274,634.243877 594.496446,612.268009 594.496446,585.897073 C594.496446,559.525914 571.947274,536.976683 545.002879,536.976683 C519.205,536.976683 496.655828,559.525914 496.655828,585.897073" id="path2419"></path>
            <path d="M738.199878,674.182858 C690.043948,674.182858 650.105102,634.243877 650.105102,585.897073 C650.105102,536.976683 690.043948,498.375633 738.199878,498.375633 C756.736152,498.375633 774.125618,503.343923 788.266808,513.471988 L788.266808,499.904376 L830.307636,499.904376 L830.307636,670.169739 L788.266808,670.169739 L788.266808,658.895228 C774.125618,668.45 757.309445,674.182858 738.199878,674.182858 Z M690.999413,585.897073 C690.999413,612.268009 713.548585,634.243877 739.919687,634.243877 C766.290859,634.243877 788.266808,612.268009 788.266808,585.897073 C788.266808,559.525914 766.290859,536.976683 739.919687,536.976683 C713.548585,536.976683 690.999413,559.525914 690.999413,585.897073" id="path2421"></path>
            <path d="M40.512131,585.897073 C40.512131,612.268009 63.0613365,634.243877 89.4324527,634.243877 C116.37682,634.243877 138.926034,612.268009 138.926034,585.897073 C138.926034,559.525914 116.37682,536.976683 89.4324527,536.976683 C63.0613365,536.976683 40.512131,559.525914 40.512131,585.897073 Z M88.2858666,674.182858 C39.938838,674.182858 -1.42108547e-14,634.243877 -1.42108547e-14,585.897073 C-1.42108547e-14,536.976683 39.938838,498.375633 88.2858666,498.375633 C106.822085,498.375633 124.211732,503.343923 138.926034,513.471988 L138.926034,499.904376 L180.393638,499.904376 L180.393638,670.169739 L138.926034,670.169739 L138.926034,658.895228 C124.785025,668.45 107.395364,674.182858 88.2858666,674.182858" id="path2423"></path>
        </g>
    </g>
</svg>