<svg height="209" viewBox="0 0 682 209" width="682" xmlns="http://www.w3.org/2000/svg" xmlns:xlink="http://www.w3.org/1999/xlink"><mask id="a" fill="#000"><path d="m0 0h31.0847473v18.2916722h-31.0847473z" fill="#000" fill-rule="evenodd"></path></mask><g fill="#000" fill-rule="evenodd" transform="translate(0 .000027)"><path d="m303.9101 31.8669725.54.58c18.71 20.219 27.06 44.049 27.06 77.2630005l-.12 7.283h-8.32v-3.678c0-11.185-.45-19.7960005-1.34-26.4010005h-35.72c-.91 7.93-1.35 17.5250005-1.35 29.3600005v.719h-7.5l-.71.025-.12-6.868c0-33.5340005 8.34-57.4960005 27.05-77.7030005zm.0199 11.947c-8.09 10.691-13.44 21.949-16.31 34.333h32.63c-2.45-11.536-7.8-22.793-16.32-34.333z"></path><path d="m0 75.1439725c0 12.004 4.16 22.615 12.01 30.6970005 7.91 8.042 18.38 12.472 29.45 12.472 8.58 0 15.79-2.008 22.02-6.135l.33-.218v-10.39l-1.19 1.029c-5.89 5.032-12.8 7.482-21.16 7.482-18.27 0-32.58-15.3470005-32.58-34.9370005 0-19.517 14.31-34.807 32.58-34.807 8.37 0 14.31 2.102 21.18 7.497l1.17.917v-10.547l-.37-.205c-7.25-4.154-13.79-6.009-21.22-6.009-24.06 0-42.22 18.556-42.22 43.154"></path><path d="m152.4099 33.3069725h-8.15v59.126c0 10.7920005-5.11 16.9960005-14.02 16.9960005-8.51 0-13.58-6.528-13.58-17.4390005v-58.683h-8.99v58.79c0 6.37.35 11.6760005 4.64 17.1870005 4.53 5.901 10.85 9.029 18.26 9.029 13.7 0 22.56-10.158 22.56-25.8800005v-59.126z"></path><path d="m209.1499 43.6959725c9.64 1.868 16.57 10.151 16.57 20.078 0 7.059-3.37 13.023-10.3 18.231-2.08 1.588-3.74 2.249-4.96 2.729-.5.211-.94.398-1.31.619zm-8.36-10.388h-.73v83.6840005h9.09v-26.1480005c1.18 3.898 3.56 9.6600005 7.44 14.7130005 4.17 5.466 9.82 9.562 17.76 12.914l1.01.429v-9.963l-.4-.2c-7.56-3.834-13.26-10.0860005-15.74-17.1740005 11.13-8.872 15.71-16.992 15.71-27.898 0-17.305-14.36-30.357-33.38-30.357z"></path><path d="m365.7098 75.1439725c0 11.996 4.15 22.615 12 30.6970005 7.92 8.042 18.38 12.472 29.46 12.472 8.57 0 15.78-2.008 22.01-6.135l.33-.218v-10.39l-1.19 1.029c-5.88 5.032-12.81 7.482-21.15 7.482-18.28 0-32.59-15.3470005-32.59-34.9370005 0-19.517 14.31-34.807 32.59-34.807 8.36 0 14.3 2.102 21.17 7.497l1.17.917v-10.547l-.37-.205c-7.24-4.154-13.79-6.009-21.21-6.009-24.07 0-42.22 18.556-42.22 43.154"></path><path d="m496.6 31.8669725.53.58c18.71 20.219 27.06 44.049 27.06 77.2630005l-.13 7.283h-8.3v-3.678c0-11.185-.44-19.7960005-1.35-26.4010005h-35.72c-.9 7.93-1.35 17.5250005-1.35 29.3600005v.719h-7.5l-.7.025-.12-6.868c0-33.5340005 8.33-57.4960005 27.05-77.7030005zm.0201 11.947c-8.09 10.691-13.44 21.949-16.32 34.333h32.64c-2.46-11.536-7.81-22.793-16.32-34.333z"></path><path d="m571.37 75.1439725c0-19.843 14.15-34.807 32.91-34.807 18.64 0 33.24 15.29 33.24 34.807 0 19.911-14.2 34.9370005-33.02 34.9370005-18.58 0-33.13-15.3470005-33.13-34.9370005m.46-27.462c-6.11 7.536-9.34 17.026-9.34 27.462 0 11.963 4.19 22.545 12.12 30.5950005 7.98 8.107 18.63 12.574 30 12.574 13.01 0 24.19-5.395 32.34-15.586 6.11-7.5320005 9.34-17.0720005 9.34-27.5830005 0-13.343-5.41-25.179-15.24-33.367-7.62-6.395-16.88-9.787-26.77-9.787-12.95 0-24.48 5.574-32.45 15.692"></path><path d="m24.4007473 14.936316c-6.13 2.041-13.75 5.491-20.04999996 1.557-3.35-2.784-4.91-7.37100003-4.17-10.98200003 3.28-7.043 12.51999996-5.486 18.89999996-5.08 1.47.821 4.42-1.059 4.9 1.557 1.81.569 4.01.99 5.07 2.544.82.166 1.56 1.065 1.97 1.791.65 4.43400003-3.76 6.64500003-6.62 8.61300003" mask="url(#a)" transform="translate(650.689253 58.106657)"></path><path d="m675.09 107.863973c-4.75-.163-10.47-.569-15.55-.403-1.8-.576-3.52-1.149-5.31-1.723-2.21-1.722-5-3.197-5.65-6.1520005-1.14-.896-1.06-2.378-1.63-3.515 1.14-1.48.23-2.707 1.38-4.102 2.29-3.688 6.64-.984 10.06-1.237 6.38 2.307 12.44 6.158 17.68 10.6600005.57 2.298.66 4.835-.98 6.472"></path><path d="m658.9698 33.5519725c-3.53 6.553-9.24 13.609-17.52 12.535l-2.53-1.312c.17-.251.5-.491.42-.819-.25-.654-.91-.323-1.39-.408.16-2.209-2.78-1.963-2.38-4.339-.56-1.237 0-2.056.98-3.118 3.76-1.309 6.55-4.915 10.07-7.048 2.7-1.971 5.32-4.099 8.42-5.163 1.15.819 3.19.744 3.52 2.376.65-.323.9.494 1.38.816.26.413 0 2.054 1.4 1.563.17 2.048-1.4 3.352-2.37 4.917"></path><path d="m646.2001 140.885973c-.16.822-.49 1.558-.97 2.219-3.44.328-6.06-1.229-8.84-2.384-2.62-1.96-4.17-3.768-6.71-5.733-3.03-4.993-9.33-10.565-4.91-16.709 1.96-.335 2.38-3.199 4.5-3.122 1.97-.974 3.6-3.113 6.13-1.963 1.57.829 2.61 2.539 4.34 3.688 4.42 5.739 6.46 12.374 8.02 19.332-1.47 1.475-.5 3.529-1.56 4.672"></path><path d="m624.1901 22.4909725c-1.13 3.19-3.67 6.553-6.86 7.702-1.65.323-2.78.16-4.51.16-.24-1.227-1.4-.082-2.2-.328-.74-.491-.74-2.374-1.97-1.222-.65-.911-1.72-1.234-2.12-2.138 2.37-8.108 1.55-18.43399995 8.42-24.57099995 2.21-.255 3.76-3.285 6.3-1.572 4.25 2.877 3.68 8.445 4.51 13.11499995.32 3.361-1.32 5.817-1.57 8.854"></path><path d="m596.2899 144.821973c-.32 2.213-2.28 4.018-3.5 5.493-2.7 0-5.07.163-6.72-1.558 1.47-3.362-3.03-4.755-2.29-8.037-1.31-6.302-1.72-14.417 3.52-18.919.98-.744 2.2-1.472 3.51-.989.83-.899 1.73.245 2.54-.741 1.65.503 2.78 1.076 4.34 1.73 3.03 5.486 1.15 12.86-.98 18.106z"></path><path d="m590.66 31.1759725c-1.32-.163-1.48 1.8-2.62 1.389-.58 1.558-2.22-.983-2.3 1.143-.82 0-1.39.167-2.2-.156l-.41.736c-.5-.901-1.81.246-2.13-.981-.33.981-.82-.083-1.39.245-3.52-5.413-4.26-11.881-6.63-17.702-1.14-3.608-1.06-8.18799995.33-11.63799995 1.97-1.635 5.4-.729 7.53-2.371 3.6-.491 3.44 3.773 4.9 5.731 2.22 7.62199995 7.77 15.32399995 4.92 23.60399995"></path><path d="m551.7098 131.633973c-1.14-1.149-1.72 1.467-2.53.814l-2.95-.16c-.57-.993 1.15-1.971 0-2.948h-1.15c-1.14-2.138-.41-4.424.16-6.72 1.4-6.142 5.81-11.475 11.05-15.567 2.79-1.885 5.73-3.443 9.17-3.946-.09.736.89 1.075 1.39 1.643h1.22l-.24 1.725c.41.488.97 0 1.38-.162.49.74-.48 3.122 1.4 3.122-.4.316 0 .891-.4 1.219.56.163.15.821.56 1.149-5.56 7.296-12.2 13.927-19.06 19.831"></path><path d="m561.7699 52.8009725c.49 1.309-.73 2.055-1.96 1.971.24.084.16.413.16.573-.81 1.147-2.13.816-3.12 1.552-4.08.253-7.27-2.616-10.79-4.096-3.19-2.531-9-4.014-7.85-9.252 2.21-2.136-.73-6.305 3.52-7.051 6.79-1.885 11.87 3.691 17.67 5.9 2.46 1.389 4.18 3.437 4.91 6.054-.82 1.487 0 4.677-2.54 4.349"></path><path d="m552.5299 91.1469725c-4.34 2.624-10.39 1.066-15.29 1.394-1.89-.488-4.44-.734-6.47-.573.23-1.152-1.07-.982-1.63-1.387-1.4-.329-1.16-2.464-2.31-3.361 0-2.048-.32-4.181.99-5.741 5.98-3.35 12.53-6.395 19.23-8.603 1.96-1.062 3.67.33 5.48.741 1.23 1.144.74 3.025 1.96 4.174 1.8.984 1.3 3.037 1.96 4.92-1.14.741.4 1.314.17 2.138 2.21 1.059-1.14 2.041-.17 3.766-.66 1.637-2.37 2.288-3.92 2.532"></path><path d="m395.2799 113.056973c-5.03-.115-8.03.671-12.4 2.864-5.09 2.528-10.77 7.507-12.03 13.783 0 0 4.78-4.656 13.92-2.613 6.33 1.411 16.07 9.065 25.57 12.427 2.29.826 13.01 4.518 18.39 2.925 2.77-.36 1.85-2.254 2.51-3.33.67-1.082 8.34 1.84 8.34.123.81-.821-3.77-3.882-2.78-4.042.13-.405 5.48-2.706 8.25-4.67 2.46-1.739 4.53-4.221 5.74-5.738-4.06 1.524-10.37 2.824-17.65 2.158-6.95-.634-12.61-2.318-16.27-4.272-3.49-1.873-5.61-4.359-9.32-6.299-3.7-1.944-7.43-3.316-12.27-3.316"></path><path d="m5.13 171.012973h27.14v5.833h-20.73v9.948h18.38v5.834h-18.38v14.845h-6.41z"></path><path d="m40.7 171.012973h27.03v5.73h-20.62v9.479h18.28v5.73h-18.28v9.791h20.88v5.73h-27.29z"></path><path d="m77.99 171.012973h27.03v5.73h-20.62v9.479h18.28v5.73h-18.28v9.791h20.88v5.73h-27.29z"></path><path d="m115.2799 171.012973h6.41v30.626h19.16v5.834h-25.57z"></path><path d="m167.67 207.472973h6.41v-36.46h-6.41z"></path><path d="m194.08 176.950973h-11.57v-5.938h29.59v5.938h-11.57v30.522h-6.45z"></path><path d="m238.6599 171.012973h27.13v5.833h-20.73v9.948h18.39v5.834h-18.39v14.845h-6.4z"></path><path d="m303.65 189.346973v-.104c0-7.083-5.15-12.969-12.39-12.969s-12.3 5.781-12.3 12.865v.104c0 7.084 5.16 12.918 12.4 12.918s12.29-5.73 12.29-12.814m-31.4 0v-.104c0-10.261 7.91-18.855 19.11-18.855s19.01 8.489 19.01 18.751v.104c0 10.26-7.91 18.855-19.11 18.855s-19.01-8.49-19.01-18.751"></path><path d="m336.15 189.085973c4.58 0 7.5-2.396 7.5-6.093v-.105c0-3.906-2.81-6.042-7.55-6.042h-9.33v12.24zm-15.78-18.073h16.25c4.58 0 8.18 1.354 10.52 3.646 1.93 1.98 3.02 4.688 3.02 7.865v.104c0 5.99-3.59 9.583-8.65 11.042l9.85 13.803h-7.61l-8.95-12.709h-8.03v12.709h-6.4z"></path><path d="m388.5399 193.096973-14.48-22.084h7.61l10.15 16.095 10.32-16.095h7.34l-14.48 21.928v14.532h-6.46z"></path><path d="m444.0599 189.346973v-.104c0-7.083-5.16-12.969-12.4-12.969s-12.29 5.781-12.29 12.865v.104c0 7.084 5.16 12.918 12.4 12.918s12.29-5.73 12.29-12.814m-31.41 0v-.104c0-10.261 7.92-18.855 19.12-18.855s19.01 8.489 19.01 18.751v.104c0 10.26-7.92 18.855-19.12 18.855s-19.01-8.49-19.01-18.751"></path><path d="m460.15 192.002973v-20.99h6.41v20.73c0 6.771 3.49 10.365 9.21 10.365 5.68 0 9.17-3.386 9.17-10.105v-20.99h6.41v20.678c0 10.886-6.15 16.354-15.68 16.354-9.48 0-15.52-5.468-15.52-16.042"></path><path d="m518.5299 189.085973c4.59 0 7.5-2.396 7.5-6.093v-.105c0-3.906-2.81-6.042-7.55-6.042h-9.32v12.24zm-15.78-18.073h16.25c4.58 0 8.18 1.354 10.52 3.646 1.93 1.98 3.02 4.688 3.02 7.865v.104c0 5.99-3.59 9.583-8.64 11.042l9.84 13.803h-7.6l-8.96-12.709h-8.02v12.709h-6.41z"></path><path d="m539.7799 202.160973 3.85-4.584c3.49 3.02 7.03 4.739 11.51 4.739 3.96 0 6.46-1.874 6.46-4.583v-.105c0-2.604-1.46-4.01-8.23-5.572-7.76-1.876-12.13-4.168-12.13-10.887v-.103c0-6.25 5.21-10.573 12.45-10.573 5.31 0 9.53 1.614 13.23 4.583l-3.44 4.844c-3.28-2.449-6.56-3.751-9.9-3.751-3.75 0-5.94 1.928-5.94 4.324v.103c0 2.813 1.67 4.064 8.7 5.73 7.71 1.876 11.67 4.636 11.67 10.677v.105c0 6.822-5.36 10.886-13.02 10.886-5.57 0-10.83-1.927-15.21-5.833"></path><path d="m577.7499 171.012973h27.03v5.73h-20.63v9.479h18.28v5.73h-18.28v9.791h20.89v5.73h-27.29z"></path><path d="m615.0399 171.012973h6.4v30.626h19.17v5.834h-25.57z"></path><path d="m648.89 171.012973h27.13v5.833h-20.73v9.948h18.39v5.834h-18.39v14.845h-6.4z"></path></g></svg>