<svg width="202" height="71" viewBox="0 0 202 71" fill="none" xmlns="http://www.w3.org/2000/svg">
<path d="M97.91 44.71C97.36 44.41 97.07 43.98 97.07 43.35C97.07 40.55 101.8 34.24 106.67 31.48C106.45 33.39 106.32 35.45 106.34 36.94C103.51 40.67 100.1 43.59 97.91 44.71ZM164.38 12.56C164.87 15.11 162.79 23.04 157.07 31.54C157.89 24.78 160.59 17.04 164.38 12.56ZM22.56 8.64C24.32 8.64 25.66 9.28 26.26 10.47C28.28 10.71 35.87 6.13 35.87 2.81C35.87 1.2 34.2 0 31.03 0C22.43 0 10.51 7.6 10.51 14.54C10.51 22.91 20.29 34.7 20.29 39.71C20.29 41.6 18.25 43.04 14.91 43.02C12.68 43.01 10.71 42.01 10.33 40.63C6.92 40.33 0 44.93 0 48.73C0 50.64 1.88 51.68 5.39 51.68C13.62 51.68 29.38 44.26 29.38 37.08C29.38 29.26 18.23 17.86 18.23 11.62C18.23 9.93 19.76 8.64 22.56 8.64ZM181.28 41.54C181.47 37.32 180.52 31.41 182.34 27.32C182.25 26.89 181.44 26.65 180.34 26.65C177.82 26.65 176.54 27.35 175.17 29.26C167.65 39.78 163.06 44.11 160.21 44.11C158.45 44.11 157.12 42.25 156.86 37.46C163.89 29.26 169.72 18.33 169.72 11.43C169.72 8.24 168.59 6.38 165.43 5.48C164.02 5.08 163.13 5.08 162.68 5.32C154.59 12.17 150.72 26.27 150.92 37.11C147.5 41.11 144.52 43.1 143.11 43.1C141.96 43.1 140.95 41.69 141.01 36.69C140.58 36.48 139.69 36.32 138.97 36.32C136.99 36.32 136.14 36.75 134.61 37.82C131.43 40.05 127.56 43.55 125.18 46.25C126.67 40.51 134.71 32.6 141.66 30.55C141.89 29.63 140.22 25.78 137.81 25.78C136.05 25.78 131.48 27.71 126.51 32.67C121.91 37.27 118.68 42.28 115.22 42.28C113.42 42.28 112.11 40.36 112.1 35.81C116.05 28.45 121.06 14.32 121.06 8.53C121.06 7.14 120.58 6.24 119.46 5.56C118.75 5.12 117.81 4.77 116.92 4.68C112.44 8.87 108.74 18.95 107.15 28.13C106.38 27.12 105.39 26.61 104.34 26.61C102.9 26.61 100.35 28 97.59 30.75C93.05 35.29 90.29 41.27 87.76 41.27C85.7 41.27 83.59 37.74 82.39 28.33C82.16 28.18 81.66 28.06 81.11 28.06C79.37 28.06 78.72 28.54 77.81 30.11C75.09 34.82 72.09 39.12 68.75 42.99C70.79 37.13 72.07 31.15 72.07 29.01C72.07 27.07 68.09 26.06 66.78 26.44C61.91 37.4 56.39 43.36 54.06 43.36C52.64 43.36 51.75 41.78 51.81 36.63C51.38 36.41 50.49 36.25 49.77 36.25C47.9 36.25 47.04 36.62 45.41 37.8C42.23 40.1 38.36 43.7 35.98 46.48C37.46 40.57 45.48 32.22 52.42 30.08C52.79 29.09 51.05 25.16 48.59 25.16C46.77 25.16 42.57 27.22 38.66 31.13C33.62 36.17 29.88 43.14 29.88 47.97C29.88 49.94 33.66 52.31 35.2 52.27C37.74 49.2 42.79 44.77 46.1 42.63C46.64 48.16 48.88 50.43 50.86 50.43C54.26 50.43 59.91 44.66 63.67 38.38C62.77 42.04 61.69 46 60.98 48.36C61.61 49.52 63.7 50.96 65.33 50.96C66.92 50.96 73.18 43.66 77.52 37.17C78.22 43.45 81.12 48.73 84.17 48.73C86.27 48.73 88.24 46.8 90.54 43.72C89.99 47.17 92.16 49.77 95.95 51.14C98.07 50.44 103.03 46.36 106.76 41.6C107.69 46.23 109.89 48.84 112.02 48.84C113.95 48.84 116.45 47.45 119.61 44.26C119.25 45.48 119.06 46.64 119.06 47.7C119.06 49.63 122.81 51.91 124.38 51.88C126.92 48.9 131.97 44.6 135.28 42.52C135.82 47.84 138.1 50.1 140.26 50.1C142.79 50.1 146.82 47.11 151.35 42.07C152.45 48.06 155.35 50.22 158.37 50.22C162.02 50.22 167.23 46.12 174.89 35.54C174.64 38.32 175.44 42.35 175 43.86C171.39 45.67 169 47.55 168.26 48.65C168.37 50.25 169.33 51.7 171.31 51.7C174.81 51.7 178.79 49.37 180.45 45.47C182.28 44.97 184.3 44.72 185.86 44.72C189.82 44.72 192.81 46.04 193.41 48.55C194.42 48.93 197.38 47.79 199.54 45.63C200.73 44.44 201.29 43.34 201.29 42.4C201.29 40.76 199.53 39.36 195.2 39.36C190.03 39.34 185.3 40.25 181.28 41.54ZM189.28 49.21C189.28 48.78 188.99 48.49 188.43 48.49H187.67V50.81H187.98V49.93H188.43L188.98 50.81H189.35L188.77 49.89C189.09 49.79 189.28 49.55 189.28 49.21ZM188.43 49.65H187.99V48.77H188.43C188.8 48.77 188.96 48.95 188.96 49.21C188.96 49.48 188.8 49.65 188.43 49.65ZM188.39 47.65C187.27 47.65 186.35 48.51 186.35 49.67C186.35 50.82 187.28 51.68 188.39 51.68C189.52 51.68 190.46 50.82 190.46 49.67C190.46 48.51 189.52 47.65 188.39 47.65ZM188.39 51.41C187.4 51.41 186.68 50.7 186.68 49.67C186.68 48.63 187.4 47.92 188.39 47.92C189.4 47.92 190.14 48.63 190.14 49.67C190.13 50.7 189.4 51.41 188.39 51.41Z" fill="#1E1E1E"></path>
<path d="M58.5403 60.3H62.9703C64.2203 60.3 65.2003 60.67 65.8403 61.29C66.3703 61.83 66.6603 62.57 66.6603 63.43V63.46C66.6603 65.09 65.6803 66.07 64.2903 66.47L66.9703 70.23H64.9103L62.4703 66.76H60.2803V70.23H58.5303V60.3M62.8403 65.23C64.0903 65.23 64.8903 64.58 64.8903 63.57V63.54C64.8903 62.47 64.1203 61.89 62.8303 61.89H60.2903V65.23H62.8403Z" fill="#1E1E1E"></path>
<path d="M71.6504 60.3H79.0204V61.86H73.3904V64.44H78.3804V66.01H73.3904V68.68H79.0904V70.24H71.6504V60.3Z" fill="#1E1E1E"></path>
<path d="M83.3301 68.79L84.3801 67.54C85.3301 68.36 86.2801 68.83 87.5201 68.83C88.6001 68.83 89.2801 68.33 89.2801 67.58V67.55C89.2801 66.84 88.8801 66.46 87.0401 66.03C84.9201 65.52 83.7301 64.89 83.7301 63.06V63.03C83.7301 61.33 85.1501 60.15 87.1201 60.15C88.5701 60.15 89.7201 60.59 90.7301 61.4L89.7901 62.72C88.8901 62.05 88.0001 61.7 87.0901 61.7C86.0701 61.7 85.4701 62.22 85.4701 62.88V62.91C85.4701 63.68 85.9301 64.02 87.8301 64.47C89.9301 64.98 91.0301 65.73 91.0301 67.38V67.41C91.0301 69.27 89.5701 70.38 87.4801 70.38C85.9601 70.38 84.5301 69.86 83.3301 68.79Z" fill="#1E1E1E"></path>
<path d="M95.4902 65.3V65.27C95.4902 62.47 97.6502 60.13 100.7 60.13C103.75 60.13 105.88 62.45 105.88 65.24V65.27C105.88 68.07 103.72 70.41 100.67 70.41C97.6202 70.41 95.4902 68.09 95.4902 65.3ZM104.06 65.3V65.27C104.06 63.34 102.65 61.73 100.68 61.73C98.7102 61.73 97.3302 63.31 97.3302 65.24V65.27C97.3302 67.2 98.7402 68.81 100.71 68.81C102.68 68.81 104.06 67.23 104.06 65.3Z" fill="#1E1E1E"></path>
<path d="M110.84 60.3H115.27C116.52 60.3 117.5 60.67 118.14 61.29C118.66 61.83 118.96 62.57 118.96 63.43V63.46C118.96 65.09 117.98 66.07 116.59 66.47L119.27 70.23H117.21L114.77 66.76H112.58V70.23H110.83V60.3M115.15 65.23C116.4 65.23 117.2 64.58 117.2 63.57V63.54C117.2 62.47 116.43 61.89 115.14 61.89H112.6V65.23H115.15Z" fill="#1E1E1E"></path>
<path d="M126.35 61.92H123.2V60.3H131.27V61.92H128.11V70.24H126.35V61.92Z" fill="#1E1E1E"></path>
<path d="M135.07 68.79L136.12 67.54C137.07 68.36 138.02 68.83 139.26 68.83C140.34 68.83 141.02 68.33 141.02 67.58V67.55C141.02 66.84 140.62 66.46 138.78 66.03C136.66 65.52 135.47 64.89 135.47 63.06V63.03C135.47 61.33 136.89 60.15 138.86 60.15C140.31 60.15 141.46 60.59 142.47 61.4L141.53 62.72C140.63 62.05 139.74 61.7 138.83 61.7C137.81 61.7 137.21 62.22 137.21 62.88V62.91C137.21 63.68 137.66 64.02 139.57 64.47C141.67 64.98 142.77 65.73 142.77 67.38V67.41C142.77 69.27 141.31 70.38 139.22 70.38C137.7 70.38 136.27 69.86 135.07 68.79Z" fill="#1E1E1E"></path>
</svg>