<svg height="179" viewBox="0 0 200 179" width="200" xmlns="http://www.w3.org/2000/svg"><g fill-rule="evenodd" transform="translate(-.000021)"><path d="m97.4339614.00331582c-.2356772.92346983-.4399308 1.68148465-.6182117 2.44591245-.0535485.23022616-.0237281.47872932-.0497007.71697171-.1821287 1.67282712-.1959167 3.39118642-.6227008 4.99988369-.2347152.88467127-.1109446 1.79788032-.4085071 2.59148723-.4453818 1.1896087-.1667376 2.4574558-.5271474 3.5726739-.3206492.9911268-.1253739 2.0162424-.4537187 2.9089299-.4091484 1.1113703-.1292216 2.3016203-.5043812 3.3071763-.4197299 1.1261202-.1038904 2.2913596-.4832185 3.3155132-.3732357 1.0078006-.1058142 2.0883886-.4739195 2.9817174-.473599 1.1482449-.2295849 2.2952073-.4396102 3.4184416-.2347152 1.2553418-.5726795 2.491124-.8449107 3.7400528-.0618853.2834539-.0525865.5851849-.0535484.8785789-.0080163 1.8632928-.4415341 3.6544395-.8930082 5.4452655-.0705428.2802475-.0285378.5871088-.0753526.8760138-.2914701 1.7911466-.6137226 3.5778042-.8808234 5.3724781-.0974774.6566896-.0327063 1.3361454-.1099827 1.9973241-.1449335 1.2383474-.1446128 2.5443518-.5742828 3.682336-.3482251.9221872-.2645357 1.8010868-.3834965 2.6976221-.171868 1.2938197-.166417 2.6511279-.5890327 3.8580517-.3119917.8907636-.1115859 1.8020487-.4158821 2.5934111-.4639794 1.2069237-.1455747 2.5049119-.5358049 3.6291081-.3277035.9436708-.1010045 1.9178032-.4290286 2.7486054-.4582078 1.160109-.1510258 2.3939672-.5242616 3.4691042-.3357197.9664368-.1167163 1.9697483-.4444198 2.8332567-.424219 1.1184246-.3408502 2.2339633-.4556426 3.3552737-.0779178.7625039-.497327 1.1092059-1.26432 1.1092059-3.2866547 0-6.5733095 0-9.8596436 0-.2610085 0-.522017 0-.8134872 0-.1882211-1.5286151-.1766777-3.0427208-.6053857-4.4195887-.3584859-1.1501688-.1337108-2.3381743-.4928379-3.3918277-.338285-.9914475-.1167164-2.0402912-.4626969-2.9130984-.4434579-1.1181039-.1308249-2.2843052-.4925172-3.3081383-.3584859-1.0145342-.1189609-2.0941602-.4732783-2.9913368-.4322352-1.0946965-.1135099-2.238773-.484501-3.2286173-.4187679-1.1181039-.1263358-2.293604-.4912347-3.3174371-.362013-1.0161374-.1202434-2.0861439-.4687892-2.9922987-.4197298-1.0908487-.1298629-2.2339633-.4873868-3.2282966-.373877-1.0398655-.1212054-2.1393718-.4787294-3.0689339-.4110723-1.068724-.1305042-2.1788117-.4755228-3.1542267-.3693879-1.0443546-.1285803-2.1570075-.4873868-3.0939446-.4200505-1.0966204-.1292217-2.2301155-.473599-3.2356715-.3549587-1.036659-.1186402-2.1531597-.4870662-3.0657274-.4450611-1.1014302-.1119066-2.2362079-.4761641-3.2356716-.3883062-1.0642348-.1240913-2.1977299-.4806532-3.1567918-.4072246-1.0953378-.1247326-2.2336426-.4832184-3.2298998-.4020942-1.1174627-.1282597-2.2929628-.4912347-3.3161545-.3697086-1.0424307-.1045316-2.1515565-.4777674-3.068934-.4357623-1.072251-.1144717-2.1823387-.4710337-3.1535853-.3828552-1.0424307.0038478-2.312843-.5075878-3.0596351-.9096819-1.32877048-.0343094-2.90027243-.9423881-4.10944074-.0147499-.0195596-.017315-.05066258-.0205215-.07695582-.178281-1.47434523-.3408502-2.950935-.5418973-4.42239439-.0756732-.5534406-.2501064-1.09245198-.3600891-1.64236544-.0346301-.17315059-.005451-.35912715-.005451-.60217928h11.4410857c.0404018.0606027.0894612.10100451.0945916.1465367.1917482 1.69206607.1872591 3.43671862.6262279 5.06144835.3674641 1.35923215.1061349 2.76656169.5130388 4.02158284.3594478 1.10880508.0763145 2.25031638.4412134 3.24208448.4774467 1.2967056.117037 2.656579.5168866 3.8654267.3754802 1.1341364.0904231 2.3131637.453398 3.3414858.4588491 1.3015153.1163957 2.6575409.5069465 3.8728016.3639369 1.1331744.0961947 2.3131636.4553219 3.343089.4636588 1.3287705.1154337 2.7082035.496365 3.9526433.3623337 1.1841576.0917057 2.4263528.4771261 3.495718.4537187 1.2585483.097798 2.5546126.4793706 3.7169661.3873443 1.1809512.1045317 2.4247496.4825771 3.49668.4437786 1.2582277.2780029 2.4936892.4309526 3.7317159.0602821.4889901.3052581.8404217.798096 1.0231918.2100253-1.6978378.4155614-3.3036492.6047445-4.9113845.1862972-1.5814421.152629-3.2257314.5999347-4.7276525.3305894-1.1100877.1087001-2.2240232.4206918-3.2501007.3998496-1.314662.1616072-2.7014699.5383701-3.9410999.3370024-1.1084845.0929883-2.2374905.4235777-3.2520247.4498709-1.3797537.1375585-2.8326154.5402939-4.1299623.3347579-1.0793053.0901025-2.1778496.4238983-3.1567918.4614143-1.3541017.1349934-2.7835561.5370875-4.0526858.3418121-1.0783434.0917057-2.1759258.4293494-3.1551886.4665446-1.3521778.1263358-2.78483868.5386907-4.05300644.3594478-1.10591925.0663744-2.24230018.4312732-3.23695414.4405721-1.20179337.2693454-2.40807583.4764848-3.59255415.0589995-.3392469.502778-.8692801.7775744-.87408984 3.5216907-.05932011 7.0449846-.03911921 10.8918136-.03911921"></path><path d="m11.4834181 148.326454c0 1.212054-.0599614 2.222741.0137879 3.223808.117037 1.588496.2465793 3.183726.5194518 4.750098.1737919.995936.4623762 2.038367.9799041 2.889691.5730002.942708 1.1613915 1.930949 2.4151301 2.348114.6522005.21708 1.250532.366182 1.9152379.363616.8837093-.003527 2.4385375-1.186081 2.8839193-2.052796.5354843-1.04179.6438637-2.140013.9908062-3.182444.4687892-1.409574.4197299-2.789328.2754377-4.13894-.0981187-.915775-.2064981-1.933836-.7689169-2.79991-.3017309-.4643-.3559206-1.082191-.5806958-1.60549-.2536335-.589995-.5755654-1.15049-.863829-1.726055-.1843734-.368426-.3360404-.75577-.546707-1.108164-.4460231-.74551-.9411055-1.462161-1.3787918-2.21248-.3892681-.66695-.6884339-1.388411-1.0998269-2.040291-.483539-.76571-1.0526914-1.477231-1.5708606-2.221458-.4476264-.642902-.8689595-1.30408-1.3162652-1.947303-.3450186-.495724-.7336455-.961948-1.0648761-1.466329-.4610936-.70158-.8699214-1.43747-1.3326183-2.137768-.4517948-.684266-.95489344-1.334542-1.41374251-2.013998-.49508244-.733004-.96547488-1.482682-1.4454868-2.225627-.61372266-.950083-1.27522205-1.873874-1.82417356-2.85987-.43319713-.778216-.70767288-1.643007-1.09181068-2.450722-.22573707-.475203-.56562527-.896856-.78494935-1.374303-.24689992-.537729-.40818649-1.113936-.62109759-1.668017-.28890497-.752244-.59352176-1.498394-.88531257-2.249676-.03815726-.097798-.0410431-.209063-.06188531-.313915-.17603643-.875693-.27158991-1.777038-.54350047-2.621949-.92956216-2.890653-.35143157-5.838382-.34918703-8.75629.0006413-.910644.54061463-1.817119.80771545-2.732893.20457422-.700619.3418121-1.421118.55921229-2.117247.15294969-.489311.34790443-.976377.59929344-1.421759.42197441-.747754.86190517-1.4926222 1.37366137-2.1797735.39503987-.5306745.91449165-.9680401 1.37302007-1.4518998.51752788-.5460657.96515423-1.1844783 1.55995858-1.6250504.7025425-.5204137 1.5288556-.8747311 2.30418547-1.2963849.5107943-.2780029 1.0260776-.5479895 1.5400783-.8202207.0461735-.0243694.0955535-.0487387.1462161-.0580376.9609858-.1779603 1.9165205-.434159 2.8855226-.5088703 1.1687665-.0901025 2.3542067-.0929883 3.5239352-.0099401 1.2409125.0881785 2.5045912.201047 3.6964445.5287506.9600238.2638943 1.834755.8500411 2.7341761 1.3185097.6592548.3430947 1.3595528.6512386 1.927102 1.1148974.5358048.4380069.9308447 1.0520502 1.3723787 1.6010017.3312307.4120343.6384127.8433075.9545728 1.2672058.2994864.4014529.6839449.7666723.8756931 1.2146193.4033768.9411058.6942056 1.9296668 1.0517295 2.8912938.2497858.672081.5335604 1.331977.8009819 1.997645.0298203.07407.0654124.149423.0763145.22702.1811668 1.309211.3703499 2.617139.5342016 3.928274.1580801 1.261434.295318 2.525433.4280668 3.790074.030141.285378.0044891.576527.0044891.774047-1.7674187.925715-3.657646.372595-5.4035811.732042-1.8652167.384138-3.7153628.361693-5.5792969.437366-.1317868.005451-.264215.000962-.5370875.000962 0-.803868.0561136-1.599398-.0125053-2.384027-.1205641-1.376547-.2414489-2.761752-.510153-4.11393-.1702647-.857416-.4768054-1.750424-.9603445-2.466434-.5245821-.776612-1.2572656-1.46697-2.0345194-1.9954-.3937573-.267742-1.1828751-.293394-1.6215233-.078559-.7564115.370991-1.5134644.909682-2.029389 1.567013-1.0793054 1.374623-1.0578219 3.079836-1.0552567 4.737272.0019239 1.201152-.0407225 2.413526.1061349 3.599929.0920263.742303.4995715 1.445166.7637865 2.166306.0538691.146857.085934.303334.1519877.443778.2946767.62687.5957663 1.250212.8987799 1.872913.3453392.710238.6688743 1.432661 1.0507676 2.122698.3325132.601217.7352487 1.163315 1.103354 1.744973.4370449.69132.8487586 1.399955 1.3111348 2.073639.5239408.763465 1.1027127 1.489095 1.637235 2.245506.4216538.59737.8118839 1.217185 1.2175052 1.825777.55312.829199 1.1020715 1.661284 1.663849 2.484711.3924746.575565.820862 1.127403 1.1998694 1.711626.214835.330589.3392469.718895.5435005 1.057501.4668653.773727.9395023 1.545209 1.4448455 2.294245.4043387.598973.8779376 1.15081 1.2858035 1.747539.2295848.336361.3876649.72146.5797338 1.083794.5925598 1.117463 1.2066031 2.224023 1.7703045 3.355594.2722312.546066.4309526 1.147283.6759286 1.70842.2305468.527788.5066258 1.035376.7637865 1.551301.0343095.068939.0955535.129221.1122272.201047.1891831.812525.3732358 1.626333.5556852 2.440141.2805681 1.250211.5826197 2.495933.8269544 3.753199.1006839.519131.1010045 1.062311.1016458 1.594909.0016033.933731.1769984 1.93608-.1016458 2.784518-.3834965 1.167805-.2048949 2.339457-.4129962 3.482892-.1689822.929563-.5781306 1.813272-.8413837 2.728405-.2145143.745189-.3334752 1.518915-.5656252 2.257691-.159042.505664-.3950399 1.000426-.6749667 1.451579-.5515167.888199-1.0959791 1.793712-1.7603643 2.595335-.5540819.668554-1.247005 1.233538-1.9303085 1.779604-.5893533.471033-1.2441191.863187-1.8850969 1.265923-.3645782.228943-.7397378.475202-1.1450385.596728-.7740473.23183-1.5933061.318726-2.3574132.573962-2.2467893.749999-4.5557845.443779-6.8400897.429991-1.2983088-.007696-2.5719276-.32097-3.7846231-.855492-.5874294-.258764-1.25886892-.323856-1.85207003-.572359-.49251724-.206178-.92956216-.547669-1.38520474-.838819-.54638631-.349187-1.13253314-.655727-1.61831674-1.07674-.73108028-.633282-1.62889817-1.236103-2.02073155-2.058889-.53035385-1.114256-1.41823161-2.011432-1.699441-3.311024-.22669902-1.046278-.64707018-2.085502-.97413241-3.126009-.24144888-.768917-.13146619-1.567013-.41780597-2.244224-.61853239-1.463123-.11447178-3.02757-.50566386-4.432976-.32353509-1.163316-.25491615-2.274686-.30814392-3.412029-.03398882-.731721.47359893-1.232255 1.20211402-1.265282.48001192-.021804.96290968.00481 1.44195966-.028858 2.33240261-.163852 4.66608782-.316801 6.99432199-.530354.56338075-.051624 1.10688115-.318405 1.84341255-.542218"></path><path d="m112.110206 75.1899205h14.412863v11.975608h-26.383982v-.8772963c0-25.436784 0-50.8732474.00032-76.31003138 0-.91705685.328345-1.25983089 1.260473-1.26015154 8.096072-.00384779 16.191825.00224455 24.287897-.00962159.584223 0 .913851.14461492.912253.79264705-.008663 3.68522176-.004174 7.37076416-.004174 11.14448516h-14.428895v20.4160581c.266138.0125054.573641.038478.881144.0387986 2.725198.0028858 5.450716.0003207 8.175914.000962 1.080267.0003206 1.428172.3408501 1.428493 1.3989926.000961 3.4735933.000641 6.9468659 0 10.4204592-.000321 1.0581425-.034631 1.0956585-1.069366 1.0962998-2.858908.0022445-5.717817.0009619-8.576726.0009619h-.896214z"></path><path d="m164.234274 100.828906h-14.822332v20.640192h10.473366v12.508206h-10.484589v21.274436h.977018c4.141506.000642 8.283011.000321 12.424838.001924 1.151131.000642 1.431699.278645 1.431699 1.410857v9.699319.946236h-26.457411v-.853248c0-25.517267 0-51.034854.000321-76.5521212 0-1.1713317.016032-1.1870435 1.144076-1.1870435 7.935748 0 15.871497 0 23.807245.0009619 1.265602.0003207 1.505448.2411283 1.505769 1.4967907v9.6191567z"></path><path d="m120.829364 109.893307v20.24868h10.65806v12.526483h-10.639783v21.401734h.940785c4.194413 0 8.388826-.000641 12.583238-.000321 1.077702 0 1.426569.342133 1.42721 1.404444.001924 3.205851-.013788 6.412023.013897 9.617553.005663.687152-.216227.959383-.915563.958424-8.388504-.012829-16.77733-.00866-25.165835-.010264-.129542 0-.258764-.018597-.438969-.032385v-78.086188h.83946 24.524857c1.107844 0 1.143115.0363135 1.143436 1.1104885.000962 3.1526235.001282 6.3049265 0 9.4572285-.000642 1.059425-.352394 1.404444-1.432661 1.404765-4.167478.000962-8.335277-.000321-12.502756-.000642-.318725 0-.63745 0-1.035376 0"></path><path d="m13.4667619 36.7724213h1.3390313c2.778105.0003207 5.5562101.0112228 8.3339945-.0070542.5681905-.0035272.8522857.1843733.8506825.7721233-.0096195 3.6592492-.0121847 7.3184984-.0202009 10.9777476 0 .0468148-.037516.0936296-.085934.2055362h-10.4602197v34.1106667h-11.58569858v-.8160523c0-25.4835988 0-50.9668769.00032065-76.45015509 0-1.16107092.01635311-1.17830582 1.14952754-1.17830582h25.16294959c1.0918106 0 1.1104083.0185175 1.110729 1.13181168.0012826 3.33924124.0003206 6.67816183.0003206 10.01708243v.7804603h-15.7955025z"></path><path d="m45.6857905 109.893307h-1.0398655c-2.9121364 0-5.8245935-.008016-8.73673.007055-.5300332.002886-.899742-.097798-.899742-.718896.0012828-3.711515.0006415-7.42303.0006415-11.1970716h33.3885647v.7362107c0 3.3664969.0016032 6.7329929-.000962 10.0994889-.0006413 1.024154-.053869 1.072572-1.0991856 1.072893-2.8858432.000962-5.7713658.00032-8.6568883.00032-.3161602 0-.6323203 0-1.0802673 0v.99722c.0003206 21.294637.0003206 42.589274.0006413 63.884231 0 1.264641-.0016033 1.267607-1.2316138 1.267607-3.1263301 0-6.2523396 0-9.3783491 0-1.2652819 0-1.2665645 0-1.2665645-1.305764 0-21.081085 0-42.161849.0003206-63.242933 0-.499892 0-.999785 0-1.600361"></path><path d="m177.233779 112.354611c-3.380284 0-6.638081.000962-9.895557-.000321-1.142152-.000641-1.144717-.002885-1.145038-1.138304-.001283-3.576843-.000321-7.153685-.000321-10.801391h33.763725c.011222.213552.028858.394399.028858.574924.001603 3.472311-.015391 6.944942.014554 10.417253.005968.720819-.209829.969964-.948285.961948-3.071499-.033989-6.143639-.01443-9.215138-.01443-.31616 0-.632641 0-1.051088 0v1.069366 64.106762c0 1.301836-.000642 1.302718-1.265282 1.302718-3.045206 0-6.090412 0-9.135297 0-1.143115 0-1.15081-.007616-1.15081-1.172214-.000321-21.395641-.000321-42.791283-.000321-64.186924 0-.341492 0-.682663 0-1.119387"></path><path d="m142.575379 67.5545886h6.817965c2.377614 0 4.754908-.0009619 7.132522.0003207 1.02255.0003206 1.398031.3607304 1.398992 1.3534604.002245 2.8852019-.018597 5.7704038.014002 8.6549645.007803.7221021-.207674.9965778-.953183.9952997-8.441412-.0176402-16.883145-.0109066-25.324557-.0121892-.180205 0-.36041-.0169944-.577489-.0278964v-78.45741942h11.491748z"></path><path d="m92.8544489 112.888428c-.0384779 1.451258-.1603246 2.932337-.5111149 4.334536-.4210125 1.681806-1.1546579 3.300122-2.3930053 4.561557-.5620982.572358-1.4108567.847796-2.1214154 1.247966-1.1690872.658614-2.3064301.224134-3.5008485.462377v-22.647457c1.0472404 0 2.1486706-.261008 3.0349451.06413 1.1835164.433839 2.4055106.980546 3.1792373 2.185225.6217389.968361 1.053974 1.97552 1.4842853 3.033662.460773 1.132854.1189609 2.331762.5345223 3.345655.4745609 1.159147.3232145 2.286229.2933941 3.412349m12.0692371 54.021061c-.170585-1.069045-.317763-2.14322-.534842-3.202965-.26646-1.300233-.633603-2.580265-.882427-3.883383-.233112-1.222636-.368426-2.46419-.54831-3.697086-.007696-.052266-.032065-.101646-.045212-.153591-.28634-1.137022-.622059-2.264746-.84459-3.414273-.240808-1.244761-.375801-2.510043-.557609-3.766026-.007375-.052586-.017956-.104852-.030462-.156156-.287943-1.182554-.624945-2.355489-.850682-3.549587-.240808-1.275222-.376122-2.570645-.558892-3.85709-.007375-.052266-.029179-.102287-.042326-.154232-.28666-1.13574-.6236623-2.262181-.8455516-3.410746-.2414489-1.24957-.3758009-2.519983-.5566471-3.781417-.0038478-.026614-.005451-.053548-.0125053-.0792-.2853778-1.053333-.5515167-2.112437-.8622258-3.158395-.3562413-1.198266.5402939-1.702006 1.2136574-2.371843.5861468-.583261 1.1235554-1.225842 1.6106214-1.894716.297883-.409149.45468-.919943.685227-1.380074.407545-.813488.909041-1.592024 1.213978-2.441744.401453-1.119387.708314-2.281099.949763-3.446659.243052-1.171011.383176-2.366392.514963-3.556962.069901-.634244.046815-1.281635.030462-1.922292-.073429-2.872056.253954-5.760464-.45917-8.606226-.27672-1.103996-.375801-2.252241-.559533-3.379964-.012185-.074711-.058038-.144292-.087858-.216118-.269345-.649956-.545424-1.297026-.805471-1.9501882-.200406-.5034193-.324817-1.0453166-.581978-1.5160297-.405942-.7432649-.879862-1.4518998-1.354102-2.1557248-.423257-.6284726-.8394597-1.271695-1.3441616-1.8318692-.4402514-.4886694-.9661162-.919622-1.5128231-1.2883687-1.080588-.7288357-2.1736813-1.4486932-3.3177578-2.0681876-.5691524-.3081439-1.2649613-.38029-1.8998468-.5707556-.9699639-.2908289-1.9184444-.7140859-2.9089299-.860302-1.5727846-.2324707-3.1805199-.263253-4.7622826-.3870236-3.4258166-.2683834-6.8875458-.0862547-10.3345252-.0811243-.9997844.0016033-1.3181891.3225732-1.3181891 1.2874068v76.3946829.922187h11.5728726v-32.749831h3.0766295c.252351 1.108484.5255441 2.083579.6877927 3.076629.2270196 1.390335.3719531 2.794458.5508754 4.19281.0202009.158721.0131466.323535.0532277.476485.2722313 1.033773.6057065 2.05472.8166937 3.100678.1885417.934051.0208422 1.887341.4614142 2.841273.3325133.720499.1205642 1.637235.4639795 2.484711.3456599.853247.0766352 1.869385.5002128 2.821713.3238558.728515.1317869 1.638197.4617349 2.485673.3341165.858699.0968361 1.871309.5014955 2.823637.3164808.743586.1269771 1.656154.4553219 2.510043.3523935.915774.0840101 1.980329.5043812 2.986206.3745184.894932.3277036 1.966221.467186 2.964723h11.6100675c.007696-.172509.035913-.304617.016353-.428708"></path><path d="m175.197496 54.4889335c.16321-.5906359.362333-1.1286854.451795-1.6843705.101004-.6278312.089461-1.2729775.152308-1.9081837.159683-1.613507.100684-3.2985188.576527-4.8145484.365861-1.1658807.123771-2.3186147.435763-3.4024092.363616-1.2627167.17283-2.6049544.537087-3.7826991.352073-1.1373429.106776-2.2772509.428067-3.3260946.397605-1.2999121.331551-2.6055958.476485-3.9093556.122167-1.0985443.420691-2.1778497.653804-3.3283392.126335.0080162.359768.0230867.565945.0362334.054831.0811242.106135.122488.110624.1683408.195596 2.0101501.188542 4.067115.647071 6.0147386.315198 1.3380693.082727 2.7158991.49925 3.9555291.377405 1.1229136.084011 2.2875117.445062 3.312948.411713 1.1694078.108058 2.404228.483859 3.4739139.425181 1.2107715.109021 2.4593797.471996 3.5803695.403056 1.2437984.286981 2.4853523.461735 3.7188899.085293.6008967.345019 1.1771034.565946 1.8950371zm22.146281 22.9466219c-.215797-1.3999546-.590956-2.7745779-.827916-4.1716466-.177319-1.0449959-.0792-2.0877473-.426464-3.1651288-.448267-1.3896938-.396001-2.9387503-.57781-4.4169433-.164813-1.3422378-.354317-2.681269-.53356-4.0215829-.003527-.0262932-.013146-.0519451-.018598-.0779177-.286981-1.3900145-.606668-2.7742573-.849079-4.1719674-.181167-1.0443545-.056434-2.0874265-.424539-3.1667319-.453078-1.3287705-.400171-2.8290883-.575245-4.2537329-.171868-1.3967481-.3556-2.7922136-.535164-4.1879998-.006733-.0525865-.028537-.1029284-.039119-.1551942-.282492-1.4166284-.590956-2.8290883-.836894-4.2521297-.171548-.9917681-.037516-1.9790471-.41941-3.0060867-.451474-1.2136574-.407224-2.61265-.568511-3.9324423-.183732-1.5022417-.357524-3.0054454-.536767-4.5083284-.006092-.0525865-.028858-.1029284-.038798-.1551942-.284416-1.4964701-.592239-2.9890923-.843949-4.4910134-.161928-.9673987-.041043-1.9296671-.412355-2.9300928-.372274-1.0026702-.132749-2.195806-.514001-3.3046111-.320328-.9321274-.039119-1.9739168-.451794-2.9980705-.433198-1.0751369-.401133-2.3400981-.555365-3.5245765-.117037-.8984591-.073749-1.7751142-.381252-2.70018726-.443458-1.33197696-.447947-2.81658297-.585185-4.24122757-.079521-.82695441-.396643-1.2110922-1.247967-1.21269545-4.007474-.00737493-8.014627-.00833688-12.021781.00160325-.785591.00192389-1.160109.40594194-1.186082 1.17036974-.010581.31936665-.01507.64418434-.077597.95553476-.269666 1.33774865-.588712 2.66619847-.832405 4.00811553-.175716.9686814-.060282 1.9376834-.412355 2.9387504-.438648 1.2486081-.425822 2.6585029-.58775 4.0010613-.191107 1.5808007-.360731 3.1644874-.539653 4.7465707-.006092.0532278-.010261.1067762-.020842.1590421-.288264 1.4134218-.60731 2.821072-.855492 4.2415482-.164814.9427088-.045532 1.8857382-.394719 2.8589087-.420692 1.1729349-.425181 2.4994608-.57781 3.7637808-.200406 1.6596805-.369709 3.3232088-.552479 4.9851338-.005772.0532278-.010582.1064556-.021163.1587214-.289867 1.4403564-.606348 2.8759031-.860943 4.3226725-.152309.864791-.070543 1.724131-.384779 2.619063-.422937 1.2043586-.431594 2.5578191-.588392 3.8509975-.198482 1.6356318-.366822 3.2747907-.54831 4.9123464-.005772.0532278-.010581.1067762-.021804.1587214-.282492 1.2806731-.600255 2.5546125-.838177 3.8433019-.193031 1.0462784-.029179 2.1018558-.423257 3.1808405-.397285 1.0879629-.06894 2.3615817-.52843 3.5434948-.31584.8131665-.102287 1.7568372-.416844 2.6758179-.39504 1.1543373-.063168 2.4795807-.552479 3.7089499-.303013.7621832-.108379 1.6449306-.39504 2.5119662-.434159 1.3143412-.438648 2.7736159-.598652 4.1742118-.072466.6342442.123771 1.3919384-.159683 1.8902273-.58775 1.0340939-.204254 2.044139-.354317 3.0541841h10.936383c.208743-.5390114.475523-.9738118.53837-1.4365086.183091-1.350254.022446-2.7175024.489952-4.0693596.338927-.9805454.114472-2.0813342.422296-3.160319.441534-1.5468119.437044-3.2218836.606347-4.8440481.041685-.3969638.012826-.8006612.026614-1.2011521.029821-.8481172.313274-1.1293266 1.147283-1.1309299 1.870027-.0032065 3.740053-.0009619 5.6104-.0009619h4.186397c.205536.4950824.472316.901345.536766 1.337428.163211 1.1039953.023728 2.2031809.412355 3.337638.41941 1.2229562.175716 2.6036719.495403 3.9417412.471355 1.9735961.455643 4.0632672.64675 6.1035583.007375.0795211-.018598.1741126.015391.2379218.254596.4752022.378046.9757356 1.166201.9609972 3.177955-.0612554 6.357834-.0250221 9.53675-.026946.233112-.0003206.466545-.0211628.847476-.0394398-.223813-1.8414886-.396643-3.6284669-.670157-5.400054z"></path><path d="m48.818726 58.8532583c-2.0742799.146216-4.1485599.2898669-6.2234812.4277461-.2597259.017315-.5213757.0022445-.7823841.0022445 0-1.3855254-.2446554-2.7014699.0699015-3.8663886.30622-1.1334951.0926676-2.3045061.441534-3.3369967.4392895-1.2995914.1285804-2.6527312.5069465-3.8676712.3523935-1.1312505.1199228-2.2948866.4582077-3.3373173.3883063-1.1960217.1112653-2.4632275.4899521-3.5502285.4293493-1.2338583.0994012-2.4940098.4694305-3.6300701.3899095-1.1963423.2937147-2.3843478.4575665-3.5694674.066695-.4812945.4152407-.9237905.6355268-1.3839221.0779177.030141.1555148.060282.233112.0907437.1802048 1.4682529.1997644 2.9804347.5855055 4.3928947.3899095 1.4284924.1417269 2.9217559.5505547 4.2643143.3289862 1.0799466.0468148 2.1877898.4149202 3.1484549.5156039 1.343841.1013251 2.774578.5438211 4.0267133.3895888 1.1027127.0541897 2.2410175.4315939 3.2315031.5021367 1.3194716.2654975 2.6581822.4774467 3.9702789.1542323.9577793.3725944 1.9049772.5415766 2.7527738-.2218893.1750745-.2600466.2315087-.301731.2343946m15.2770127 27.2067678c-.2077807-1.2383474-.3347578-2.4904827-.5239409-3.7323572-.127939-.8378565.3681054-1.8296246-.5861468-2.4776567-.0423257-.0288584-.0198803-.152629-.0282171-.2321501-.1144718-1.1081638-.0981187-2.1961266-.4197299-3.3232087-.453398-1.5891377-.2658182-3.3543118-.6570103-4.9707047-.2747964-1.1373428-.3543174-2.2567293-.4517948-3.3943929-.0044891-.0522658-.0307823-.1022871-.0410431-.1545529-.28153-1.4172697-.5890327-2.8300502-.833688-4.2537329-.1705854-.9920888-.0189183-1.9832156-.4181266-3.0083312-.3770836-.9696433-.1215261-2.1374479-.5027781-3.2218836-.3344371-.9529696-.0644505-2.0284272-.4569251-3.0769502-.3703499-.9892029-.1125479-2.159252-.5088704-3.2513834-.3344372-.9225078-.0901024-1.9678244-.4434579-2.9955052-.3828552-1.1136148-.0881785-2.4103204-.5348429-3.6156409-.2959593-.798096-.1173577-1.7080985-.4117137-2.6049545-.3783661-1.152734-.1083794-2.4693198-.5467069-3.7025368-.294356-.8275957-.0977981-1.761647-.4155615-2.682231-.4258222-1.232255-.422295-2.6152152-.5858261-3.9356488-.1077382-.8721659-.0952329-1.7199625-.3927954-2.61265-.3658607-1.0979031-.1090207-2.3609404-.5255441-3.5447775-.3187253-.9064754-.0551516-1.9190857-.435121-2.9227178-.3889475-1.0260776-.1208848-2.2487132-.521055-3.3841322-.3187254-.9035895-.1420476-1.9235748-.430632-2.9243211-.4421753-1.5327034-.3998496-3.2007208-.6207769-4.8033257-.1029284-.7448682-.3091059-1.48172016-.5435005-2.19772992-.0522658-.16000398-.4194092-.30654068-.6425811-.30750263-4.1677989-.01795636-8.3355977-.01090207-12.5037173-.01475062-.6313584 0-1.0296047.40786659-1.1309299.90743812-.2472205 1.21910845-.3815726 2.46290685-.5290712 3.70029225-.1984819 1.6603218-.3665021 3.3241708-.5483102 4.9860958-.0086576.079521-.0214835.1587214-.0381573.2366392-.2799268 1.3104934-.588712 2.6152152-.8317641 3.9324423-.1830908.9933714-.0330269 1.9909112-.417806 3.0179507-.4354417 1.1620329-.417806 2.4984989-.5662666 3.7624983-.1981612 1.6885389-.3668227 3.3802843-.5486308 5.0704265-.0086576.079521-.019239.1593627-.0355921.2376011-.2821713 1.3345421-.5932011 2.6639539-.8391391 4.0052297-.1776397.9680401-.04938 1.9383247-.4059419 2.9397123-.4354417 1.2235975-.4277461 2.6084816-.5877501 3.92635-.1952754 1.6086973-.3658608 3.2202804-.5470276 4.8302602-.0060923.0532278-.0102608.1067762-.0211629.1590421-.286981 1.3893731-.6057064 2.7732953-.851965 4.1697228-.1619279.9176981-.0650918 1.8325104-.3950399 2.7809909-.4274254 1.2296898-.428708 2.6107261-.5890326 3.9295565-.1952754 1.6083766-.3652195 3.2199597-.5460657 4.8299396-.0060923.0529071-.0102608.1067762-.0211629.1587213-.2876223 1.3874493-.606989 2.7691269-.8532476 4.1636305-.1619279.9167362-.0439289 1.8328311-.3963225 2.7797083-.4065832 1.092452-.0586788 2.3619023-.5309951 3.5479839-.3305894.8301609-.1721887 1.8103856-.4235777 2.7498879-.4299906 1.6074147-.4354416 3.3286598-.6178911 5.0024489-.0256519.2359979-.0141085.4800119-.0711841.7073522-.1567975.6246248-.3408502 1.2421952-.5191311 1.8799666h11.4301836c.2414489-1.3637213.5085497-2.620025.675608-3.889796.1487812-1.1306093.0532278-2.2567294.4216537-3.4043331.3844585-1.1973042.1070969-2.526716.490914-3.8208564.4299907-1.4499759.3828552-3.0413581.5492722-4.6301751h10.8870038c.2270197 1.2370648.4697512 2.4055107.6486735 3.583576.1673789 1.1017508.0343094 2.1970886.4072245 3.3341108.3841378 1.1706904.2039329 2.5110043.5088704 3.7887915.3899094 1.6333873.4008115 3.3575183.5739621 5.0332312h11.8053433c-.2433728-.4514741-.4995715-.7390965-.5534406-1.0607077"></path></g></svg>