<svg height="199" viewBox="0 0 201 199" width="201" xmlns="http://www.w3.org/2000/svg"><g fill-rule="evenodd" transform="translate(.1222 .709914)"><path d="m165.928811 131.283509c-.089272-1.277632-.743087-2.289979-2.029032-2.316001-1.382084-.02783-1.846513 1.077403-1.895666 2.367324-.049515 1.295703.489006 2.200707 1.798443 2.181913 1.289198-.018794 2.063367-.845369 2.126255-2.233236m-95.3435224 1.112462c-.1868559-.923437-.6914031-1.692185-1.8551868-1.675198-1.6347186.024215-3.2076337 1.336183-3.123422 2.634055.0856574 1.32534 1.0257199 2.035898 2.2108276 2.217333 1.183662.181073 2.8032007-1.720376 2.7677812-3.17619m18.5431946-60.8398651c-.0415637 1.2711264.3361239 2.2827508.7850119 3.2676299 2.0875822 4.578513 6.0661322 7.5017064 9.5524234 10.8502952.7358585.7073058 1.4695475.3057643 2.0373445-.3104628 2.956806-3.210525 6.449241-5.9389111 8.936196-9.5621818 1.293173-1.8844622 1.821213-4.1997412.730076-6.2949133-2.179746-4.1856456-5.553634-4.7906686-9.205819-1.0069259-.867055.8984989-1.413527 1.1869148-2.2578123.1521593-.9946375-1.21872-2.3973222-1.6957991-3.836872-2.173601-4.9012642-1.6256829-6.2360013 1.6368871-6.7405485 5.0780004m11.1318438-50.2281095c-3.2488356.0889102-5.4943599 1.712786-7.5710994 3.6720629-2.8888581 2.7254947-5.547128 5.6472423-7.6816952 9.0175166-2.7211576 4.2962412-5.8062687 8.400928-7.7308489 13.1341303-.7817591 1.9227731-2.1663725 4.1097467-.427564 6.2435911 1.0517424 1.2910048 2.2852808 2.4547885 3.8632559 3.1519745 3.4273791 1.5150873 5.9045759.6462252 7.6000135-2.6785097.1362567-.2670919.2573336-.5421352.3802176-.8160943 1.8754266-4.1870913 4.4849043-7.9368602 7.1066705-11.6620523 1.6618252-2.3611798 4.643208-2.2064906 6.153235.2370938 1.757603 2.8447644 3.338469 5.7986788 5.093542 8.6452503 1.004757 1.6292972.860549 2.7612756-.769832 3.9153009-2.020719 1.4297914-1.635803 3.2824483.623094 4.3620204 3.423765 1.6358028 7.170642 2.2549212 10.70681 3.5444803 2.316363.8446468 2.939457.3813018 3.807597-1.5154488 1.770975-3.8694001 2.030477-8.2382874 4.02192-12.0393785.318776-.6079143.333956-1.3900348.422143-2.0998706.188663-1.5208701-.626708-2.2888951-2.113243-1.9737338-.579001.122884-1.186915.2923916-1.679174.6028544-.88621.5591222-1.355699.2688991-1.821574-.5515322-1.214383-2.1378201-2.46527-4.2554004-3.738565-6.3585238-2.727663-4.5051441-5.031377-9.2524419-8.515138-13.3137579-2.197816-2.5624927-5.000656-2.9940323-7.729765-3.5173736m26.717149 88.1034866c3.516651-.15216 7.82771-.212517 12.125036-.708752 3.489905-.402987 6.33214-1.750735 8.589591-4.527552 2.37889-2.926085 2.096256-6.1322729 1.214383-9.3453279-.994999-3.626885-2.161674-7.1923279-4.036016-10.5318811-2.57442-4.5868258-4.754527-9.4483334-8.149739-13.4774827-3.221006-3.8220536-3.608091-4.5936928-7.744222-2.8762083-4.941382 2.0521627-6.560559 5.6508566-2.763805 10.251055 2.794526 3.3858155 4.733564 7.3636426 6.643687 11.2948461 1.456898 2.9983695-.125414 5.3241298-3.448342 5.4647235-3.283894.1387866-6.570679.2089028-9.853489.3715434-1.648814.0816817-2.543337-.4365996-2.759107-2.2382958-.318414-2.6622456-2.111436-3.2578715-4.32118-1.6639939-3.127036 2.2552827-5.358826 5.4350868-8.287441 7.8963809-1.136677.9552428-1.193059 2.1374588-.123606 3.2885928.856573.92163 1.655681 1.89675 2.521651 2.808622 1.931086 2.034091 4.178779 3.764226 5.583632 6.298166.468044.844647 1.375217 1.50316 2.197816 2.082161 1.441719 1.014516 2.725495.257695 2.835729-1.742062.081321-1.474246.267092-2.389732 2.15047-2.415031 2.271547-.030721 4.548515-.25878 7.624952-.229504m-45.8469336-11.2175019c-3.2311262-.226974-6.4777936-.3270883-9.6886801-.7195942-2.7880209-.3411838-4.0226436-2.804285-2.7160976-5.2558207 1.547254-2.9029536 3.1920924-5.7589222 4.9095769-8.5646529 1.4514768-2.3712997 1.5237615-2.3268446 4.1274565-1.3669037 1.7991662.6632121 3.5845984-.5544237 3.3211206-2.4186461-.2331181-1.6484527-.2548035-3.3207593-.805613-4.952225-.6082757-1.8027804-.9953603-3.7053138-1.2555852-5.5951973-.4011801-2.9127121-1.1511339-3.5231564-3.9875856-3.0547515-3.8191622.6310454-7.474961 2.1573369-11.4531496 1.9806008-.9010288-.0397566-1.8989191.3845546-2.7258561.8298284-1.0372855.5583993-1.4254544 1.4926791-.5265941 2.5241818.4290097.4922588.9288584.9700607 1.490872 1.2873905.8786205.4962345.9657236 1.0228285.4655135 1.8591625-1.2295628 2.0583069-2.4085263 4.1473348-3.5939954 6.2316642-2.6329703 4.6298352-5.6620607 9.0348649-7.4702625 14.1208165-1.2993176 3.6543531-.1308353 6.7618726 1.6076117 9.8408396.3025115.535629.8341655.837418 1.337267 1.17571 3.5798999 2.406358 7.7033807 3.361601 11.8286687 3.935541 6.5717636.914402 13.2454487 1.594239 19.8432349.694656 4.6312809-.631407 5.4831561-.399734 6.3184058-5.470868.7152571-4.341419-1.3770236-8.0727552-6.7192245-7.3643651-1.4352127.1904702-2.85633.3715434-4.3070839.2826332m-81.1305424 5.7881979v-12.6219936c.52695548-.3198598.33431675-.8522367.36323063-1.3032932.2168541-3.3554559.55080943-6.7040447 1.19522754-10.0002271 4.6934457-24.0093638 16.56042523-43.7936867 35.84200803-58.7851725 20.8136571-16.18237618 44.5158109-23.26627698 70.9243038-20.81943982 9.863971.91404006 19.416394 2.99800802 28.522098 6.98053367 10.912098 4.77223605 21.38579 10.26876475 30.005741 18.68198125 4.163237 4.0634845 8.134198 8.3380404 11.675425 12.9653455 15.655782 20.4583778 22.93196 43.5067165 21.229294 69.2881398-.225167 3.408224-.101921 6.932464-.959218 10.187083-1.984215 7.529897-4.418764 14.944501-7.661455 22.059845-.396482.869224-.935003 1.434852-1.797721 1.86603-4.350093 2.174685-8.84837 4.019391-13.447123 5.544237-4.059509 1.346302-7.976617 3.253173-12.41056 3.381839-2.14541.062165-2.943434-.473103-2.600443-2.614899.178905-1.118606.572495-2.201069.831997-3.308832.489729-2.091196 1.344496-4.10288 1.354977-6.300696.003253-.706222-.054936-1.371241-.863441-1.568578-.906811-.221191-1.243297.402987-1.562072 1.116076-.585506 1.309076-1.076681 2.705616-1.903618 3.852413-2.56683 3.560744-6.346235 5.552549-10.18383 7.397978-1.074512.516835-2.278414.638996-3.514121.584422-1.257754-.05566-1.798443-.294199-1.092944-1.637972.611528-1.163784 1.07921-2.405273 1.583034-3.623632 1.337629-3.233656-.723208-7.891321-5.059206-7.761208-2.250223.067586-4.402861.564905-6.144561 2.149385-.471296.428649-.765495.817902-1.336544-.046623-.802722-1.215829-1.780734-.589482-2.552734.164809-4.778019 4.667784-10.012877 8.720426-15.927212 11.855414-.932834.494427-2.087582 1.399793-2.974876.767302-1.095837-.781036-.157943-2.108545.011565-3.184503.364315-2.309135 1.64267-4.382983 1.799166-6.747777.112764-1.697967-.212155-3.294736-1.796274-4.216366-1.555929-.905366-3.009213-.271791-4.34142.666103-.439491.30974-.82007.701523-1.238237 1.042346-1.16559.950182-2.305159 1.931808-3.448341 3.370274-.047708-.695018-.073731-.932473-.078791-1.170651-.075176-3.65869-1.360759-4.379369-4.5734528-2.741036-1.6665238.850068-2.7627213 2.396961-4.4006926 3.523879-.0683091-.504547-.1091499-.738388-.1304739-.974036-.3563636-3.927228-2.5447829-5.10583-5.8243399-3.05692-3.4606301 2.162035-6.1908233 5.158236-8.5823626 8.377436-2.0163818 2.713929-4.7639233 4.334913-7.5031521 6.027821-.7297141.451056-1.7055575.581169-2.589238.691403-2.4977979.311547-3.8950612-1.233538-3.7450704-3.732421.1387866-2.311303.8876561-4.453822 1.414973-6.662119.3317868-1.391119-.3245583-2.25709-1.5331585-2.158421-.7571823.061442-1.1121002.643695-1.5609882 1.115714-3.2546187 3.423042-6.1727521 7.201725-10.2326224 9.778675-3.5188193 2.233958-7.2328072 3.994091-11.4318256 4.496469-2.5899609.309379-4.8625919-1.547254-5.3949687-4.134685-.8005531-3.891446.9310269-7.289912 1.9137375-10.839091.1405937-.508161.658875-.67044 1.067645-.910787 5.1192026-3.007405 9.6156725-6.78934 13.3585744-11.368576 3.1360718-3.837234 4.8933129-8.395146 5.3309967-13.323155.2623935-2.958252-2.2191403-4.488157-4.9402979-3.2651-1.4764151.663573-2.8928338 1.488342-4.0327635 2.673088-6.0357727 6.274674-9.8758975 13.778187-12.200212 22.094181-.3469666 1.241489-.796216 2.218056-1.9820466 2.797779-6.0719149 2.970178-11.7881892 6.670432-18.3122449 8.724041-1.1890834.374434-1.5562897.050238-2.072041-.811035-2.3188933-3.871207-4.2228723-7.943004-5.97288495-12.094315-3.31063935-7.854094-6.49586475-15.720115-7.21401326-24.370425-.22335973-2.690798-.41129996-5.453881-1.30040179-8.068057"></path><path d="m130.44631 144.192148c-.376603 2.568998-.790071 5.133659-1.121135 7.70844-.581169 4.513457-1.174988 9.027275-1.63508 13.554105-.213963 2.101677-.725739 4.126733-1.14499 6.178535-.047708.234202-.181073.45467-.204927.688873-.117824 1.164506-.605023 2.671281 1.055718 2.960781 1.448224.252635 1.872535-1.17824 2.033007-2.279136.682368-4.681158 1.207878-9.385085 1.88627-14.066603.312992-2.161313.101198-4.402862.925605-6.703322 1.895305 1.865306 4.272026 3.04427 6.392498 1.757241 2.522013-1.53099 4.869459-.978012 7.416049-.940063 3.352926.049515 6.142031-1.752542 8.835359-3.571587 1.217997-.8226 2.217695-1.971927 3.625801-2.53141.223359.448526.053129.77959-.01771 1.131255-.831636 4.124566 1.326786 6.394305 5.483156 5.878554 3.107519-.386 6.127213-1.084632 9.080766-2.116496 5.118118-1.787962 10.410081-3.124868 15.496394-6.179981-1.158724 2.603695-2.469607 4.641039-3.7729 6.678384-5.552549 8.680308-12.599585 16.00311-20.282365 22.819919-3.360515 2.982105-6.995352 5.351598-10.927278 7.43665-6.769824 3.59002-13.102686 7.949871-20.51223 10.373578-11.059921 3.617849-22.365609 4.931262-33.9058622 4.360574-5.8669878-.290223-11.8366199-.46732-17.53916-1.709172-10.8105386-2.353951-21.1158072-6.290214-30.7828018-11.819271-13.2971324-7.605074-23.658783-18.346219-32.9390544-30.296326-.805613-1.036924-.5587608-1.517617.5143056-1.986745 3.7302521-1.631466 7.4605041-3.264016 11.1611194-4.961261 1.6267673-.745978 3.1819726-1.648814 4.9789703-2.590322-.3440752 2.17071-1.0304184 4.052642-1.1373998 6.085288-.3462437 6.582606 3.1870325 9.378217 8.5632073 9.475079 3.8726529.069754 7.1955806-1.716762 10.4418866-3.481955 3.2658228-1.775312 6.2728664-3.97855 8.8060838-6.756812.2678148-.293837.5276783-.682368 1.1175215-.561652 0 .220107.0556592.470212-.0083128.684897-.7517609 2.525989-.2360095 4.763201 1.9874679 6.198052 2.4226218 1.563518 5.1893188 2.136736 7.8403602.613697 3.7562746-2.15806 7.1832923-4.719106 9.8401165-8.283827 1.7102561-2.294677 3.8509675-4.276724 5.8716863-6.32708.5558694-.564182 1.3712408-1.284499 2.2223932-.699354.7882647.542135.7683864 1.464488.5992402 2.43997-.5630978 3.244499-.9386169 6.522972-2.5064721 9.505438-.2435994.463345-.3285339 1.03078-.3961201 1.562073-.1030057.809227.2248054 1.358591 1.058248 1.628574.8254913.267815 1.2873906-.149629 1.5978534-.771278 1.1775177-2.359372 2.4804495-4.675013 3.4215963-7.127994.8981374-2.341663 2.6297175-3.98108 4.1542018-5.809522.3552794-.426118.9501825-.967169 1.554844-.683451.7438099.349135.4470809 1.194143.3614235 1.780733-.2501051 1.716039-.6538151 3.408947-.9545195 5.11848-.1734833.98777-.5562308 2.222755.6881504 2.672004 1.2776325.461538 1.6405015-.731521 2.1486625-1.642308 1.404131-2.515147 2.887413-4.994151 4.879579-7.103057.947652-1.00295 2.275884-2.375636 3.463883-1.721098 1.267512.69827.240708 2.405996-.048792 3.62327-.496958 2.08686-1.470271 4.018307-1.755796 6.203473-.46226 3.536891 1.085355 5.109083 4.61321 4.532613 3.80073-.621287 6.607545-3.024754 9.582783-5.126431 2.622489-1.852296 5.157875-3.82603 7.893489-5.803016"></path><path d="m39.344491 138.415841c.1055357-2.396961 1.1305327-4.050473 1.7912149-5.821087 1.5541211-4.166129 3.6023081-8.111067 6.3104545-11.595189 1.6520669-2.12517 3.6117051-4.164322 6.1601023-5.388463.522257-.25119 1.0568023-.668272 1.6582111-.178182.5797233.472019.7167028 1.108847.4973187 1.786516-1.7171231 5.307143-3.5495403 10.481282-7.8150605 14.503564-2.591768 2.443585-5.5207442 4.320457-8.602241 6.692841"></path><path d="m143.487157 142.468844c-.36576 2.469246-.668995 4.463219-1.927833 6.176728-.459369.625263-.679114.767302-1.358591.282633-1.11463-.79477-2.333711-1.444248-3.516289-2.142157-.965724-.569965-2.034814-.848261-3.097038-.483585-1.566409.537799-1.328231-.439852-1.08427-1.253778.760796-2.537193 6.401171-5.674349 8.864995-4.897288 1.285222.405155 2.021081 1.400877 2.119026 2.317447"></path><path d="m136.787594 152.314743c-1.778565.032167-3.768201-1.60219-3.982887-2.978491-.064333-.413107.037227-.610444.493343-.754291 1.66544-.525148 4.967405.699716 5.93349 2.202877.372266.578639.02277.780675-.374073.9191-.781759.272513-1.589179.472019-2.069873.610805"></path><path d="m64.1259277 70.8355358c4.0128852.0936087 7.4106276-.8757292 10.8401753-1.6636324.4940659-.113487.9541581-.2110713 1.1099316.4846689.6263469 2.797418 1.2787164 5.5890532 1.8909678 8.3893625.1362567.6216485.174929 1.3072689-.8460924.9545195-2.5570714-.8825962-4.1751644.4517794-5.3758133 2.426236-1.9227731 3.1620943-3.8278364 6.3433441-5.5500194 9.6167568-2.225646 4.2304622.4333467 8.9864339 5.2182326 9.3442439 4.7744046.356725 9.5462792.970422 14.3586332.413829 1.1912519-.138063 2.5834552-.402987 3.2954596 1.128365.7774219 1.672668.5027401 3.43786-.2591407 4.859339-.5583993 1.041622-2.159144 1.131255-3.4241263 1.216551-5.0906502.343353-10.1592535.011566-15.2430366-.318414-3.2723284-.212517-6.3639451-1.014877-9.5119439-1.749651-1.8692824-.4366-3.4111151-1.41172-5.0313767-2.291787-.2970901-.161194-.6245398-.448888-.7300755-.750676-.7705549-2.199624-1.8157917-4.2673276-.9483753-6.8178933 1.6643553-4.8940357 4.6348951-9.0543817 7.1099233-13.4941081 1.4001547-2.5122548 2.8787383-4.980416 4.2792544-7.491948.8312741-1.4901491.2511893-2.7623598-1.1825777-4.2557618"></path><path d="m114.449489 110.001194c-1.935784-3.261124-4.560442-5.224376-6.841747-7.499537-.924883-.922715-1.003673-1.544724-.023854-2.471414 1.823743-1.7243519 3.531108-3.5708646 5.31148-5.3422012.692126-.6888732 1.19848-.9064502 1.475331.4304554.478886 2.3123876 2.443223 3.0692084 4.376477 3.0037908 4.301301-.1449309 8.615252-.075899 12.909325-.5818919 4.15131-.4893674 5.373645-6.1362483 3.905181-9.0406477-2.0565-4.0663759-4.205524-8.0872124-6.861987-11.8087903-.069755-.0975844-.163002-.1789046-.227697-.279019-.726099-1.1211357-2.061198-2.1027619-1.30257-3.6597744.805974-1.6545968 2.494545-2.1540841 4.114807-2.631886.743809-.2193841 1.242574.3068485 1.705557.7832047 2.565023 2.6391145 4.466111 5.7267555 6.237809 8.935112 2.783322 5.0400509 5.596643 10.0370923 6.999689 15.701683.950182 3.8375948.187579 7.0643836-3.048969 9.0507676-2.066258 1.267874-4.663448 1.4522-7.125103 1.560627-6.170945.271429-12.344781.48756-18.516811.736581-1.727604.069755-2.707785 1.055718-3.086918 3.11294"></path><path d="m123.113714 47.6463143c-1.55376 3.6919411-2.210105 7.2729253-3.399549 10.6963287-.131197.3769648-.241793.9010289-.799831.8030831-3.518819-.6169499-6.918368-1.6296586-10.315749-2.9712627 2.580563-3.0052365 2.739951-3.8762671.922714-7.2122061-1.627852-2.9875268-3.340638-5.9363812-5.165465-8.8071681-2.769588-4.3569604-8.0803454-4.4415335-11.0516081-.1434851-2.7594685 3.992284-5.5106243 8.0026393-7.4865266 12.4785081-.864525 1.958554-1.9462656 2.3076891-3.9153009 1.4814749-2.6846538-1.1265571-3.4071394-3.0496916-1.9675896-5.8767462 1.3806378-2.7117606 2.7591071-5.4220755 4.4585205-7.9773398 3.1592029-4.7501891 6.161548-9.6127811 10.5759747-13.3419488 2.1139661-1.7854322 4.1621531-3.0182478 7.43412-2.0330073 3.61532 1.0889691 5.068242 3.8520518 6.739826 6.4665895 3.12812 4.8936743 5.906383 10.0099855 8.865718 15.0128097 1.427262 2.4128634 2.128424 2.6206819 5.104746 1.4243701"></path></g></svg>