<svg height="161" viewBox="0 0 239 161" width="239" xmlns="http://www.w3.org/2000/svg"><g><path d="m41.9714286 48.6185547c-2.2 3.3-9.3 9.5-13.2 11.9-1.5.9-3.1-1.1-4.4-.9-1.6.3-2.6 1.9-2.3 3.5 0 .1 0 .1.1.2 4.1 9.9 9.8 18.4 13.2 28.5 1 3 1 4.5-1.4 7.1-3.7 4.3000003-16.8 14.1000003-27.60000003 15.9000003-2.4.4-7.6-6.1-5.8-7.6 6.4-5.2 18.60000003-11.3000003 20.90000003-10.5000003.6.2 1.5 1.8 1.9 1.8 1.4-.1 2.4-.6 1.5-2.6 0 0-10.9-18-13.4-28.3-1.70000003-6.8 4.5-12.7 9-16.3 7.4-5.9 17.3-7.6 18.9-6.9 1.2.5 2.8 1.6 3.1 2.6.3.3-.2 1.2-.5 1.6zm88.0000004 46.8c.1-1.3-.3-2.9.3-7.9-5.3 3.8-9.9 7.6-10.7 13.8000003 0 .4.7 1.7 1.6 1.2 3.2-2 6.1-4.4000003 8.8-7.1000003zm74.6-31.3c-4.3 4.1-8.6 14.3-8.1 19.8 3.8-4.5 8.6-14.1 8.1-19.8zm-16.8 29.6c0-2.1.2-3.2.3-5.8.4-12.2 7.6-26.7 15.2-32.2 2.3-1.7 7-1.4 7.8 1.8 2.2 9.9-5.1 22.2-10.7 30.5-1.9 2.8-2.7 4.1-4.1 6.1-1.2 1.7-.1 5.9000003.8 7.3000003 2.5 4.2 8.7-.4 11.2-2.7000003 3.5-3.2 6.6-6.9 9.1-11-.2-.6-.4-1.2-.7-1.7-.1.1 4.5-5.6 5.7-7.3 2.5 1.3 5.8 5.3 6.7 7.4 1.6 4.2 1.2 8.4-1 12.8-.4.8-.8 1.5000003-1.2 2.2000003 3.1-1.8000003 8.1-8.4000003 8.4-8.3000003 1.2.5 2.3 1.2 3.2 2.1-5.5 8.4000003-12.6 15.8000003-22 17.0000003-.4 0-3.2-3.4-2.4-4 2.8-2.5 5.1-5.6 6.8-9.0000003 1.2-2.9 1.2-4 1-5.7-.2-1.5-.9-.5-.9-.5-2.3 3.3-4.7 6.5-7.4 9.5000003-6.2 6.6-9.5 7.8-10.9 8.3-6.8 2.2-10.4-1.2-12-3.6-2.1-3.1-1.3-6.7-2.6-5.8-2.4 2.6-9.9 10.6-14 9.7-6.8-1.4-2.6-10-7.3-9-5.8 1.2-13.9 10.5-13.9 10.5s-4.1-2.4-5.4-3.1c-.2-.1.2-4.4.1-4.3-6.4 5.1-8.9 4.9-10.8 3.8-2.7-1.7-3.9-4-5.1-6.9-3.4 4.3-10.9 9.5-13.4 10.6-1 .4-7.4-2.8-7.9-7.3-3.4 1-5.8 1.3-8.2-4.6-.9-2.2000003-1.7-4.1000003-2.5000004-6.4000003-3.4 5.2-11.5 15.2000003-16.5 18.0000003-1.1.6-6.4-2.5-6-4 .9-3.4 1.6-6.9 2.1-10.4000003-.6.9-1.3 1.7-2 2.5000003-1.4 1.4-9 11.5-13.6 10.6-6.8-1.4-2.6-10-7.3-9.1-5.8 1.2-14 10.6-14 10.6-.4.3-4-2.4-5.3-3.1-.2-.1.2-4.3.1-4.2-6.8 4-3.9 4.8-7 1.8-.4-.1 5-5.5 7.2-7.6000003 3.6-3.3 6.5-8.3 11.8-12.8 3.3-2.9 7.1-5.1 11.3-6.4 2.2-.6 4.5 3.5 6 5.9.2.3-1 .4-2.8 1.4-7.1 3.8-10.3 6.5-16 13.4000003 6.3-5.0000003 8.1-2.0000003 10.2-7.3000003h7.5c.1 0-.6 2.9-.5 4.3.2 1.6 1 3.5000003 2.6 3.6000003 1.9.1 4.2-1.7000003 7.3-4.9000003 2.7-3.2 4.9-6.8 6.7-10.5 1.1-2.3 2-4.4 2.4-5 .6-1 5.8 1.9 6.8 2.9.1.1 0 .2.1.4-.6 4.7-1.5 9.4-2.6 14 9-8.3 12.1000004-15.8 13.7000004-16.3.7-.1 1.3.1 1.9.3 1.1.4 1.3 9.2 4.8 16 1.2 2.3000003 2 1.4 3.4-1 2.2-3.7 6.6-8.2 11.4-11.9 2.7-2.1 5.7-3.9 8.8-5.2 1.3-8.3 7.4-20.4 13.2-24.8 1.4-1.1 4.8.6 4.7 2-.5 9.4-3.8 18.5-8.3 27-1.5 2.8-2.9 5.4-3.1 7-.5 4 0 7.8 2.5 9.3000003 2.7 1.6 6.1-.6 8-2.7000003 3.1-3.2 5.8-7.5 10.3-11.4 3.3-2.9 7.1-5.1 11.3-6.4 2.2-.6 4.5 3.5 6 5.9.2.3-1 .4-2.9 1.4-7.1 3.8-10.3 6.5-16 13.4000003 6.3-5.0000003 8.1-2.0000003 10.2-7.3000003h7.5c.1 0-.6 2.9-.5 4.3.2 1.6 1 3.5000003 2.6 3.6000003 1.9.1 7.2-4.3000003 10.1-7.5000003z"></path><path d="m41.6714286 48.6185547c-2.2 3.3-9.3 9.5-13.2 11.9-1.5.9-3.1-1.1-4.4-.9-1.6.3-2.6 1.9-2.3 3.5 0 .1 0 .1.1.2 4.1 9.9 9.8 18.4 13.2 28.5 1 3 1 4.5-1.4 7.1-3.7 4.3000003-16.7 14.1000003-27.50000003 15.9000003-2.4.4-7.6-6.1-5.8-7.6 6.4-5.2 18.60000003-11.3000003 20.90000003-10.5000003.6.2 1.4 1.8 1.9 1.8 1.4-.1 2.4-.6 1.5-2.6 0 0-10.9-18-13.4-28.3-1.70000003-6.8 4.5-12.7 9-16.3 7.4-5.9 17.3-7.6 18.9-6.9 1.2.5 2.8 1.6 3.1 2.6.2.3-.4 1.2-.6 1.6zm87.9000004 46.8c-.1-2.6 0-5.3.3-7.9-5.3 3.8-9.9 7.6-10.7 13.8000003 0 .4.7 1.7 1.6 1.2 3.2-2 6.1-4.4000003 8.8-7.1000003zm74.6-31.3c-4.3 4.1-8.6 14.3-8.1 19.8 3.8-4.5 8.6-14.1 8.1-19.8zm-16.8 29.6c0-2.1.2-3.2.3-5.8.4-12.2 7.6-26.7 15.2-32.2 2.3-1.7 7-1.4 7.7 1.8 2.3 9.9-5.1 22.2-10.7 30.5-1.9 2.8-2.7 4.1-4.1 6.1-1.2 1.7-.1 5.9000003.8 7.3000003 2.5 4.2 8.7-.4 11.2-2.7000003 3.5-3.2 6.6-6.9 9.1-11-.2-.6-.4-1.2-.7-1.7-.1.1 4.4-5.6 5.7-7.3 2.5 1.3 5.8 5.3 6.7 7.4 1.6 4.2 1.2 8.4-1 12.8-.4.8-.8 1.5000003-1.2 2.2000003 3.1-1.9000003 8.1-8.4000003 8.4-8.3000003 1.2.5 2.3 1.2 3.3 2-5.5 8.4000003-12.7 15.8000003-22 17.0000003-.4 0-3.2-3.4-2.4-4 2.8-2.5 5.1-5.6 6.8-9.0000003 1.2-2.9 1.2-4 1-5.7-.2-1.5-1-.5-1-.5-2.3 3.3-4.7 6.5-7.4 9.5000003-6.1 6.6-9.5 7.8-10.9 8.3-6.8 2.2-10.3-1.2-11.9-3.6-2.1-3.1-1.3-6.7-2.6-5.8-2.4 2.6-9.9 10.6-14 9.7-6.8-1.4-2.6-10-7.3-9-5.8 1.2-13.9 10.5-13.9 10.5s-4.1-2.4-5.4-3.1c-.2-.1.2-4.4.1-4.3-6.4 5.1-8.9 4.9-10.8 3.8-2.7-1.7-3.9-4-5.1-6.9-3.4 4.3-10.9 9.5-13.5 10.6-1 .4-7.4-2.8-7.9-7.3-3.4 1-5.8 1.3-8.2-4.6-.9-2.2000003-1.7000004-4.1000003-2.5000004-6.4000003-3.4 5.2-11.5 15.2000003-16.5 18.0000003-1.1.6-6.4-2.5-6-4 .9-3.4 1.5-6.9 2-10.4000003-.6.9-1.3 1.7-2 2.5000003-1.4 1.4-9 11.5-13.6 10.6-6.8-1.4-2.6-10-7.3-9.1-5.8 1.2-14 10.6-14 10.6-.4.3-4-2.4-5.3-3.1-.2-.1.2-4.3.1-4.2-6.8 4-3.9 4.8-7 1.8-.4-.1 5-5.5 7.2-7.6000003 3.6-3.4 6.5-8.3 11.8-12.8 3.3-2.9 7.1-5.1 11.3-6.4 2.2-.6 4.5 3.5 6 5.9.2.3-1 .4-2.8 1.4-7.1 3.8-10.3 6.5-16 13.4000003 6.3-5.0000003 8.1-2.0000003 10.2-7.3000003h7.5c.1 0-.6 2.9-.5 4.3.2 1.6 1 3.5000003 2.6 3.6000003 1.9.1 4.2-1.7000003 7.3-4.9000003 2.7-3.2 4.9-6.8 6.8-10.5 1.1-2.3 2-4.4 2.4-5 .6-1 5.8 1.9 6.8 2.9.1.1 0 .2 0 .4-.6 4.7-1.5 9.4-2.6 14 8.9-8.1 12.1-15.7 13.6000004-16.1.7-.1 1.4.1 2 .3 1.1.4 1.3 9.2 4.8 16 1.2 2.3000003 2 1.4 3.4-1 2.2-3.7 6.6-8.2 11.4-11.9 2.7-2.1 5.7-3.9 8.9-5.3 1.4-8.3 7.4-20.4 13.2-24.8 1.4-1.1 4.8.6 4.7 2-.5 9.4-3.8 18.5-8.3 27-1.5 2.8-2.9 5.4-3.1 7-.5 4 0 7.8 2.5 9.3000003 2.7 1.6 6.2-.6 8-2.7000003 3.1-3.2 5.8-7.5 10.3-11.4 3.3-2.9 7.1-5.1 11.3-6.4 2.2-.6 4.5 3.5 6 5.9.2.3-1.1.4-2.9 1.4-7.1 3.8-10.3 6.5-16 13.4000003 6.3-5.0000003 8.1-2.0000003 10.2-7.3000003h7.5c.1 0-.6 2.9-.4 4.3.2 1.6 1 3.5000003 2.6 3.6000003 1.9.1 7.2-4.3000003 10.1-7.5000003z"></path><path d="m231.471429 107.618555c1 0 1.9.8 1.9 1.8v.2c-.1 1.2-1.1 2.1-2.3 2.1-1 0-1.9-.8-1.9-1.8 0-.1 0-.2 0-.2.1-.6.3-1.1.8-1.5.4-.3.9-.6 1.5-.6zm2.2 2.1c.1-.6-.1-1.2-.6-1.7-.4-.5-1-.7-1.6-.7-.7 0-1.3.2-1.8.7-.5.4-.8 1-.9 1.7-.1.6.1 1.2.6 1.7.4.5 1 .7 1.6.7.7 0 1.3-.3 1.8-.7s.8-1 .9-1.7zm-1.7-.5c0 .2-.1.4-.3.4-.1 0-.3.1-.4.1h-.4l.1-1h.4c.2 0 .4 0 .6.1 0 .1.1.2 0 .4zm-1.5-.8-.2 2.6h.5l.1-1h.4c.2 0 .3 0 .5.1s.2.4.2.6v.2.1h.4v-.1c0-.1 0-.1 0-.2v-.2c0-.1 0-.3-.1-.4s-.3-.2-.4-.2c.1 0 .3-.1.4-.1.2-.1.3-.3.3-.5.1-.3-.1-.6-.4-.7-.2-.1-.5-.1-.7-.1z"></path><path d="m19.2714286 123.318555c0 .1-.3.3-.4.3s-.1 0-.1-.1c-.5-1.2-1-2.3-1.6-3.5-.1-.3-.3-.4-.7-.5-1.7-.3-3.3-.5-5-.6-.3 0-.4.1-.4.4-.1 2.1-.3 8.7-.3 9.8 1.7.1 6 .2 7.2.2 0 0 .1 0 .1.1 0 .2-.1.6-.3.6-1.4.1-4.8.4-6.8.5-.2 0-.3.1-.3.3 0 1.2-.1 7.9-.1 8.7 0 .4.2.5.4.5l2.3.4c.1 0 .2.3.2.4s0 .1-.1.1c-1.1 0-2.9-.1-4.80000003-.1-1.7 0-3.3 0-4.4.1-.1 0-.1 0-.1-.1 0-.2.1-.4.2-.5l1.4-.3c.2-.1.3-.1.3-.5 0-1.3-.1-8.6-.1-10.1s-.1-8.7-.2-9.9c0-.3-.1-.5-.3-.5l-1.5-.3c-.1 0-.1-.3-.1-.5s0-.1.1-.1c1 0 1.7 0 2.3.1h1.7c7.10000003 0 10.30000003-.2 10.80000003-.2.1 0 .2.1.2.2z"></path><path d="m33.7714286 141.318555c-6 0-9.6-3.7-9.6-10.7 0-7.3 4-12.7 10.8-12.7 6 0 9.3 4.4 9.3 10.6 0 7.9-3.6 12.8-10.5 12.8zm.7-.7c3.1 0 4.4-4.5 4.4-11.4 0-5.4-1.6-10.6-4.6-10.6s-4.7 4.4-4.7 11.6c-.1 5.4 1.8 10.4 4.9 10.4z"></path><path d="m58.7714286 118.218555c.1 0 .1 0 0 0 .1.3 0 .6-.1.6l-1.5.3c-.3 0-.5.2-.5.5-.3 3.3-.4 6.9-.4 11.2 0 6.6 1.6 9.8 4.2 9.8 2.9 0 4-2.5 4-10 0-3.8-.1-8.4-.3-10.9 0-.4-.2-.5-.4-.6l-1.6-.3c-.1 0-.2-.3-.2-.5s0-.1.1-.1h8.2c.1 0 .1 0 .1.1 0 .3-.1.5-.2.5l-1 .2c-.3.1-.4.2-.3.5.2 2.8.5 6.1.5 10.8 0 7.3-3.8 10.8-9.6 10.8-5 0-8.7-2-8.7-10.6 0-4.8.7-9.8.8-11 .1-.4-.1-.6-.4-.6l-1.2-.3c-.1 0-.2-.3-.2-.5 0-.1 0-.1.1-.1z"></path><path d="m80.8714286 118.218555c.1 0 .3.1.3.2 1.8 2.6 7.6 12.5 10 16.4.2.4.4.8.6 1.2l.1-.1c0-.6 0-1.1 0-1.7-.1-2.8-.2-11.8-.5-14.4 0-.4-.2-.6-.6-.7l-1.9-.3c-.1 0-.2-.3-.2-.5s0-.1.1-.1h6.6c.1 0 .1 0 .1.1s-.1.4-.2.5l-1.3.3c-.3.1-.5.2-.6.9-.1 1.3-.4 6.9-.5 9.7-.1 2.1-.3 9.7-.3 11.1 0 .1-.1.2-.2.3-.5.2-1.1.3-1.6.3-.4 0-.7-.2-.9-.4-2.8-3.6-7.7-10.7-10.4-14.6-.1-.2-.4-.6-.5-.8h-.2v1.2c-.1 2.8-.4 10.6-.5 12.9 0 .4.1.5.3.6l2.2.4c.1 0 .2.2.2.4s0 .1-.1.1c-.5 0-1.8-.1-3.1-.1s-2.2 0-2.8.1c-.1 0-.1 0-.1-.1s.1-.4.2-.4l1.7-.4c.2 0 .4-.1.4-.6 0-1.1-.2-7.6-.2-9.7 0-1.6-.2-8.8-.3-10 0-.4-.1-.7-.5-.7l-1.4-.3c-.1 0-.2-.3-.2-.5 0-.1 0-.1.1-.1z"></path><path d="m100.071429 119.118555c-.1000004 0-.2000004-.3-.2000004-.4s0-.1.1-.1c2.8000004-.3 5.6000004-.5 8.5000004-.5 7.5 0 11.8 3.4 11.8 10.4 0 8-5.3 12.6-12.4 12.6-1 0-3.2-.1-4-.1-1.3 0-2.7 0-3.6.1-.1 0-.1 0-.1-.1s.1-.4.2-.4l1.5-.3c.2 0 .4-.1.4-.6.1-1.4 0-8.6-.1-10.1s-.1-8.5-.1-9.7c0-.4-.1-.5-.3-.6zm8 21.3c3 0 6.9-2.6 6.9-11.9 0-5.9-2.4-9.8-6.8-9.8-.6 0-.8.2-.8.6-.2 2.5-.6 19.3-.5 20.4 0 .4.5.7 1.2.7z"></path><path d="m133.971429 118.218555c1.2 0 2.1 0 2.9.1.1 0 .2.1.3.2 1.1 4 4.6 16.7 6 21.2.1.2.2.4.4.5l1.3.4c.1 0 .2.2.2.5 0 0 0 .1-.1.1-.7 0-2.4-.1-4.1-.1-1.9 0-3.8 0-4.7.1-.1 0-.1 0-.1-.1 0-.2.1-.5.2-.5l1.9-.3c.3 0 .3-.3.2-.6-.4-1.2-1.6-4.8-2-6-1.5 0-5.5.1-7.3.3-.1 0-.2.1-.2.3-.2 1.1-.9 4-1.1 5.4 0 .4.1.6.4.6l1.8.4c.1 0 .2.3.2.5s0 .1-.1.1c-.9 0-2.2-.1-3.6-.1-1.2 0-2.2 0-2.9.1-.1 0-.1 0-.1-.1s.1-.4.2-.5l.9-.3c.3-.1.4-.2.6-.7 1.7-4.4 5.2-15.8 6.8-20.2.2-1.1.6-1.3 2-1.3zm-1.9 2.9c-.2.6-.3.9-.3 1.3-.9 3.1-2 7.3-2.6 9.9 0 .1 0 .2.1.3 2.2.2 4.5.3 6.7.3-.6-1.8-2.4-7.1-3.3-10.4-.1-.3-.2-.8-.4-1.3h-.2z"></path><path d="m165.571429 123.718555c0 .2-.3.3-.4.3s-.1 0-.1-.1l-1.5-3.7c-.1-.3-.4-.6-.7-.7-1.4-.3-2.8-.5-4.2-.6-.1 2.2-.2 8.4-.3 10.4s-.1 9-.1 10.4c0 .4.1.4.4.5l1.7.3c.1 0 .2.2.2.4 0 .1 0 .1-.1.1-.8 0-2.6-.1-4.6-.1-1.8 0-3.5 0-4.2.1-.1 0-.1 0-.1-.1 0-.2.1-.5.2-.5l1.7-.4c.2 0 .3-.1.3-.5 0-1.5-.1-8.8-.1-10.5 0-1.5-.1-8.3-.2-10.2-1.4.1-2.8.3-4.1.6-.4.1-.6.4-.8.8l-1.5 3.7c0 .1-.1.1-.1.1s-.4-.2-.4-.3l.3-5.4c0-.2.1-.3.2-.3s.9 0 2.3.1 3.6.1 6.8.1 5.3 0 6.7-.1l2.4-.1c.1 0 .2.1.2.3z"></path><path d="m179.171429 118.218555c.1 0 .1 0 .1.2s0 .5-.2.5l-1.3.3c-.2 0-.3.2-.3.5-.2 2.4-.3 8.4-.3 10.1 0 1.4-.1 9.4-.1 9.9 0 .3.1.4.4.4l1.4.3c.1 0 .2.3.2.4s0 .1-.1.1c-.6 0-2.4-.1-4.3-.1s-3.3 0-4.1.1c-.1 0-.1 0-.1-.1s.1-.4.2-.5l1.6-.3c.2 0 .3-.1.3-.5 0-1.5-.1-7.7-.1-10.2 0-2.7-.1-8.4-.2-9.5 0-.4-.1-.7-.4-.7l-1.3-.3c-.1 0-.2-.2-.2-.6 0-.1 0-.1.1-.1h8.7z"></path><path d="m194.171429 141.318555c-6.1 0-9.6-3.7-9.6-10.7 0-7.3 4-12.7 10.8-12.7 6.1 0 9.3 4.4 9.3 10.6 0 7.9-3.6 12.8-10.5 12.8zm.7-.7c3.1 0 4.4-4.5 4.4-11.4 0-5.4-1.6-10.6-4.6-10.6s-4.7 4.4-4.7 11.6c0 5.4 1.8 10.4 4.9 10.4z"></path><path d="m215.471429 118.218555c.1 0 .3.1.3.2 1.8 2.6 7.6 12.5 10 16.4.2.4.4.8.6 1.2l.1-.1c0-.6 0-1.1 0-1.7-.1-2.8-.2-11.8-.5-14.4 0-.4-.2-.6-.5-.7l-1.9-.3c-.1 0-.2-.3-.2-.5s0-.1.1-.1h6.6c.1 0 .1 0 .1.1s-.1.4-.2.5l-1.3.3c-.3.1-.5.2-.6.9-.1 1.3-.4 6.9-.5 9.7-.1 2.1-.3 9.7-.3 11.1 0 .1-.1.2-.2.3-.5.2-1.1.3-1.6.3-.4 0-.7-.2-.9-.4-2.8-3.6-7.7-10.7-10.4-14.6-.1-.2-.4-.6-.5-.8h-.2v1.2c-.1 2.8-.4 10.6-.5 12.9 0 .4.1.5.3.6l2.2.4c.1 0 .2.2.2.4s0 .1-.1.1c-.5 0-1.7-.1-3.1-.1s-2.2 0-2.8.1c-.1 0-.1 0-.1-.1s.1-.4.2-.4l1.7-.4c.2 0 .4-.1.4-.6 0-1.1-.2-7.6-.2-9.7 0-1.6-.2-8.8-.3-10 0-.4-.1-.7-.5-.7l-1.4-.3c-.1 0-.2-.3-.2-.5 0-.1 0-.1.1-.1z"></path><path d="m7.37142857 159.818555c-2 0-3.1-1.3-3.1-3.4 0-3.2 2.1-7.3 5.6-7.3 2.00000003 0 3.00000003 1.3 3.00000003 3.3 0 3.3-2 7.4-5.50000003 7.4zm.3-.3c2.40000003 0 3.80000003-4.4 3.80000003-7.2 0-1.5-.5-2.8-1.80000003-2.8-2.4 0-3.9 4.2-3.9 7.1 0 1.6.6 2.9 1.9 2.9z"></path><path d="m22.6714286 151.918555c.1 0 .1 0 0 0-.1.9-.4 2.7-.6 3.8-.2.9-.5 2.8-.6 3.3 0 .3 0 .3.1.3.2 0 .4 0 .6-.1.1 0 .1 0 .2.1v.1c-.6.3-1.3.4-1.9.4-.1 0-.3-.1-.3-.2 0 0 0 0 0-.1s0-.2 0-.3c.1-.7.5-2.1.6-2.9 0-.2.1-.4.1-.6h-.1c-.1.2-.1.4-.2.6-.6 1.3-2 3.5-3.6 3.5-.8 0-1.2-.6-1.2-1.8.1-1.8.5-3.6 1.1-5.3 0-.2 0-.3-.2-.3s-.4.1-.6.1c-.1 0-.1-.1-.1-.1s0 0 0-.1c.6-.3 1.2-.4 1.9-.4.2 0 .3.2.3.4-.5 1.8-.9 3.6-1 5.5 0 .9.2 1.2.7 1.2 1.3 0 2.9-3.2 3.4-4.9.1-.4.4-1.4.5-1.8 0-.2.2-.3.4-.3z"></path><path d="m31.2714286 151.918555c.2 0 .4 0 .6.2v.1c0 .3-.3.8-.6.8-.1 0-.2 0-.2 0-.1-.1-.3-.1-.4-.1-1.3 0-2.6 2.7-3.2 4.7-.1.4-.4 1.5-.5 1.9 0 .2-.2.3-.4.3h-.6s-.1 0-.1-.1c.1-.9.4-2.5.7-3.9.2-1.1.4-2.5.5-3 0-.3 0-.3-.2-.3s-.4.1-.6.2c-.1 0-.2-.1-.2-.2h.1c.6-.3 1.3-.5 2-.5.2 0 .3.2.3.5-.1.7-.5 2.3-.8 3.4l-.1.5h.1c.1-.1.1-.3.2-.5.5-1.6 1.8-4 3.4-4z"></path><path d="m46.2714286 151.518555c0 2.1-2.2 4-4.7 4-.3 0-.6 0-.7 0-.2.8-.5 2.6-.7 3.6 0 .2 0 .2.1.2l1 .2s.1.1.1.2v.1h-1.8c-.6 0-1.1 0-1.5 0s0-.2.1-.2l.7-.1c.1 0 .2-.1.2-.2.1-.6.5-2.7.8-4.5.3-2 .7-4.2.8-4.6 0-.1 0-.2-.1-.2h-.6c-.1 0-.1-.1-.1-.2l-.0801078-.199689m-.0198922-.000311c1.1-.1 2.2-.2 3.3-.2 2.2 0 3.2.9 3.2 2.3zm5.1 1.9c.1-1-.7-1.9-1.7-2-.1 0-.2 0-.3 0-.6 0-.8.1-.8.4-.3 1.2-.8 3.8-1 5 0 .2.2.3.7.3 1.7-.1 3.1-1.9 3.1-3.7z"></path><path d="m54.8714286 152.118555v.1c0 .3-.3.8-.6.8-.1 0-.2 0-.2 0-.1-.1-.3-.1-.4-.1-1.3 0-2.6 2.7-3.2 4.7-.1.4-.4 1.5-.5 1.9 0 .2-.2.3-.4.3h-.6s-.1 0-.1-.1c.2-.9.4-2.5.7-3.9.2-1.1.4-2.5.5-3 0-.3 0-.3-.2-.3s-.4.1-.6.2c-.1 0-.2-.1-.2-.2.6-.3 1.3-.5 2-.5.2 0 .3.2.3.5-.2.7-.5 2.3-.8 3.4l-.1.5h.1c.1-.1.1-.3.2-.5.6-1.5 1.8-4 3.5-4 .2 0 .4 0 .6.2z"></path><path d="m58.7714286 159.818555c-1.3.1-2.4-.9-2.6-2.2 0-.1 0-.3 0-.4 0-2.5 2-5.3 4.4-5.3 1.3-.1 2.5.9 2.6 2.2v.5c0 2.4-1.9 5.2-4.4 5.2zm.2-.3c1.7 0 2.8-3 2.8-5.1 0-1.2-.4-2.2-1.4-2.2-1.7 0-2.9 2.9-2.9 5.1 0 1.3.6 2.2 1.5 2.2z"></path><path d="m67.9714286 156.218555c.1-.2.2-.4.3-.5.6-1.2 2.1-3.8 3.8-3.8.7 0 1 .7 1 1.7 0 .6-.1 1.3-.2 1.9 0 .2-.1.4-.1.6h.1c.1-.2.2-.4.3-.6.5-1.1 2-3.5 3.7-3.5.7 0 1 .7 1 1.7-.2 1.9-.5 3.7-1 5.5 0 .2 0 .3.2.3s.4 0 .7-.1c.1 0 .1.1.1.1-.5.3-1.1.4-1.8.4-.2 0-.3-.1-.3-.2s0-.2 0-.3c.4-1.7.7-3.4.8-5.1 0-.9-.2-1.4-.7-1.4-1.2 0-2.7 2.8-3.3 4.5-.2.6-.4 1.7-.5 2s-.1.3-.3.3h-.7c-.1 0-.1-.1-.1-.1.4-1.8.7-3.6.9-5.4 0-.8-.2-1.3-.7-1.3-1.2 0-2.8 2.9-3.4 4.6-.1.4-.4 1.5-.5 1.9s-.1.4-.3.4h-.7s-.1 0-.1-.1c.2-.7.5-2.9.7-4 .2-.9.4-2.1.5-2.9 0-.3 0-.4-.2-.4s-.4.1-.6.1c-.1 0-.2 0-.2-.1.6-.3 1.3-.5 2.1-.5.2 0 .3.2.3.5-.2.6-.5 2.2-.8 3.3-.1.2-.1.4-.1.6z"></path><path d="m83.5714286 151.918555c.2 0 .3.1.3.5-.2.8-.5 2.4-.8 3.6-.2 1.1-.5 2.5-.6 3.1 0 .2 0 .3.2.3s.5 0 .7-.1c.1 0 .1.1.1.1-.6.3-1.2.4-1.8.4-.2 0-.3-.1-.3-.3 0-.1 0-.2 0-.3 0-.4.3-2.1.6-3.4s.4-2.6.5-3.1c0-.3 0-.4-.2-.4s-.4.1-.6.2c-.1 0-.2-.1-.2-.2.6-.3 1.3-.5 2-.5zm0-2.6c.3 0 .6.2.6.6v.1c0 .5-.4.8-.8.8-.3 0-.6-.3-.6-.6 0-.5.3-.9.8-.9z"></path><path d="m88.0714286 159.818555c-1.1 0-1.6-.3-1.6-.9 0-.3.1-.5.2-.8 0-.1.2-.1.2-.1h.1c0 .8.6 1.4 1.4 1.4h.1c1.2 0 2-.7 2-1.6s-.6-1.2-1.5-1.7-1.5-1-1.5-1.8c0-1.3 1.6-2.5 3.2-2.5 1 0 1.4.3 1.4.9 0 .2-.1.5-.2.7 0 .1-.1.1-.2.1s-.1 0-.1 0c-.1-.7-.5-1.3-1.2-1.3-.9-.1-1.7.6-1.7 1.5 0 .7.5 1.1 1.3 1.5 1 .6 1.7 1.1 1.7 2-.2 1.5-1.8 2.6-3.6 2.6z"></path><path d="m100.171429 158.518555c0 .1 0 .2-.1.2-.6000004.4-1.1000004.7-1.8000004.9-.4.1-.8.2-1.2.2-1.2.1-2.2-.7-2.3-1.9 0-.1 0-.3 0-.4 0-2.4 1.9-5.6 4.3-5.6 1.2000004 0 1.8000004.7 1.8000004 1.5-.1 1-.7 1.8-1.7000004 2.1-1 .4-2 .5-3 .4-.1.4-.2.9-.2 1.3 0 1.3.7 2 1.7 2 .3 0 .7-.1 1-.2.6-.1 1-.3 1.5000004-.5-.1 0 0 0 0 0zm-1.4000004-6.3c-1.1 0-2.1 1.5-2.5 3.4.7.1 1.4-.1 2.1-.4s1.2-1 1.3-1.8c0-.6-.2-1.2-.9-1.2z"></path><path d="m103.671429 158.418555c.3 0 .5.3.5.6 0 .4-.3.7-.7.7-.3 0-.5-.2-.6-.5 0-.5.3-.8.8-.8z"></path><path d="m116.971429 159.818555c-2 0-3.1-1.3-3.1-3.4 0-3.2 2.1-7.3 5.6-7.3 2 0 3 1.3 3 3.3 0 3.3-2 7.4-5.5 7.4zm.3-.3c2.4 0 3.8-4.4 3.8-7.2 0-1.5-.5-2.8-1.8-2.8-2.4 0-3.9 4.2-3.9 7.1 0 1.6.6 2.9 1.9 2.9z"></path><path d="m132.371429 151.918555c-.1.9-.4 2.7-.6 3.8-.2.9-.5 2.8-.6 3.3 0 .3 0 .3.1.3.2 0 .4 0 .6-.1.1 0 .1 0 .2.1v.1c-.6.3-1.3.4-1.9.4-.1 0-.3-.1-.3-.2 0 0 0 0 0-.1s0-.2 0-.3c.1-.7.4-2.1.6-2.9 0-.2.1-.4.1-.6h-.1c-.1.2-.2.4-.2.6-.6 1.3-2 3.5-3.6 3.5-.8 0-1.2-.6-1.2-1.8.1-1.8.5-3.6 1.1-5.3 0-.2 0-.3-.2-.3s-.4.1-.6.1c-.1 0-.2-.1-.2-.1s0 0 0-.1c.6-.3 1.2-.4 1.9-.4.2 0 .3.2.3.4-.5 1.8-.9 3.6-1 5.5 0 .9.2 1.2.7 1.2 1.3 0 2.9-3.2 3.4-4.9.1-.4.4-1.4.5-1.8 0-.2.2-.4.4-.4z"></path><path d="m140.971429 151.918555c.2 0 .4 0 .6.2v.1c0 .3-.3.8-.6.8-.1 0-.2 0-.2 0-.1-.1-.3-.1-.4-.1-1.3 0-2.6 2.7-3.2 4.7-.1.4-.4 1.5-.5 1.9 0 .2-.2.3-.4.3h-.6s-.1 0-.1-.1c.1-.9.4-2.5.7-3.9.2-1.1.4-2.5.5-3 0-.3 0-.3-.2-.3s-.4.1-.6.2c-.1 0-.2-.1-.2-.2h.1c.6-.3 1.3-.5 2.1-.5.2 0 .3.2.3.5-.1.7-.5 2.3-.8 3.4 0 .2-.1.4-.1.5h.1c.1-.1.1-.3.2-.5.4-1.6 1.6-4 3.3-4z"></path><path d="m147.371429 156.418555c.1-2.2 1-4.3 2.6-5.9 1-.9 2.3-1.4 3.6-1.4.5 0 1 .1 1.4.3.1 0 .1.1.1.2l-.2 2.2c0 .1-.1.1-.2.1 0 0-.1 0-.1-.1-.1-.6-.2-1.2-.3-1.8 0-.1-.1-.2-.2-.3-.2-.2-.5-.3-.8-.2-.9.1-1.7.5-2.3 1.1-1.4 1.6-2.1 3.5-2.2 5.6 0 2 1.1 2.9 2.5 2.9.3 0 .7 0 1-.1.5-.1 1-.3 1.5-.5v.1c0 .1 0 .2-.1.2-.6.3-1.2.6-1.9.8-.4.1-.9.1-1.3.1-1.7.1-3.2-1.1-3.3-2.8.1-.1.1-.3.2-.5z"></path><path d="m164.071429 152.018555s.1 0 0 0c.1 0 .3.1.3.3-.2.7-.7 3.2-1 4.3-.1.8-.4 2-.5 2.5 0 .2 0 .3.1.3.2 0 .5 0 .7-.1.1 0 .1.1.1.1-.5.3-1.1.4-1.7.4-.2 0-.3-.1-.3-.2s0-.2 0-.3c.1-.4.3-1.8.6-2.7.1-.2.1-.4.1-.6-.1.2-.2.4-.3.6-.8 1.5-2 3.4-3.6 3.4-1 0-1.5-.8-1.5-1.9 0-2.3 1.7-6 4.3-6 .6-.1 1.2.2 1.6.7.1.1.1.2.2.3h.1zm-2.6.2c-1.8 0-3 3.7-3 5.5 0 .9.3 1.4.9 1.4 1.3 0 2.7-2.7 3.3-4.4.1-.2.1-.4.1-.7 0-.1 0-.2 0-.4-.1-.5-.5-1.4-1.3-1.4z"></path><path d="m172.771429 151.918555c.2 0 .4 0 .6.2 0 0 .1 0 .1.1 0 .3-.3.8-.6.8-.1 0-.2 0-.2 0-.1-.1-.3-.1-.4-.1-1.3 0-2.6 2.7-3.2 4.7-.1.4-.4 1.5-.5 1.9-.1.2-.1.3-.4.3h-.6s-.1 0-.1-.1c.1-.9.4-2.5.7-3.9.2-1.1.4-2.5.5-3 0-.3-.1-.3-.2-.3-.2 0-.4.1-.6.2-.1 0-.2-.1-.2-.2h.1c.6-.3 1.3-.5 2.1-.5.2 0 .3.2.2.5-.1.7-.5 2.3-.8 3.4 0 .2-.1.3-.1.5h.1c.1-.1.1-.3.2-.5.4-1.6 1.7-4 3.3-4z"></path><path d="m177.971429 151.918555c.2 0 .4.1.3.5-.2.8-.5 2.4-.8 3.6-.2 1.1-.5 2.5-.6 3.1 0 .2 0 .3.2.3s.5 0 .7-.1c.1 0 .1.1.1.1-.6.3-1.2.4-1.8.4-.2 0-.3-.1-.3-.3 0-.1 0-.2 0-.3 0-.4.3-2.1.6-3.4s.4-2.6.5-3.1c0-.3 0-.4-.2-.4s-.4.1-.6.2c-.1 0-.2-.1-.2-.2h.1c.6-.2 1.3-.4 2-.4zm0-2.6c.3 0 .6.2.6.6v.1c0 .5-.4.8-.8.8-.3 0-.6-.3-.6-.6-.1-.5.3-.9.8-.9z"></path><path d="m182.971429 155.818555c.1-.2.2-.4.3-.6.8-1.4 2.3-3.3 3.9-3.3.9 0 1.4.8 1.4 1.9 0 2.1-1.6 6-4.2 6-.8 0-1.6-.4-2-1.2 0-.1-.1-.1-.2 0l-.7 1s0 .1-.1.1-.2-.1-.2-.2c.2-1.3.8-4.4 1.1-5.9.2-1.3.7-3.8.8-4.5 0-.2 0-.3-.1-.3-.2 0-.5 0-.7.1-.1 0-.2-.1-.2-.2 0 0 0 0 0-.1.7-.2 1.4-.3 2.2-.4.2 0 .3.1.3.3-.4 1.9-1 4.5-1.4 6.3 0 .3-.1.6-.2.8zm3.3-3c-1.2 0-2.9 2.5-3.6 4.3-.1.2-.1.4-.1.6s0 .3.1.5c.2.7.8 1.3 1.5 1.3 1.8 0 2.9-3.9 2.9-5.4 0-.8-.2-1.3-.8-1.3z"></path><path d="m192.971429 155.818555c.1-.2.2-.4.3-.6.8-1.4 2.3-3.3 3.9-3.3.9 0 1.4.8 1.4 1.9 0 2.1-1.6 6-4.2 6-.8 0-1.6-.4-2-1.2-.1-.1-.1-.1-.2 0l-.7 1s0 .1-.1.1-.2-.1-.2-.2c.2-1.3.8-4.4 1.1-5.9.2-1.3.7-3.8.8-4.5 0-.2 0-.3-.1-.3-.2 0-.5 0-.7.1-.1 0-.2-.1-.2-.2 0 0 0 0 .1-.1.7-.2 1.4-.3 2.2-.4.2 0 .3.1.3.3-.4 1.9-1 4.5-1.4 6.3-.3.3-.3.6-.3 1zm3.3-3c-1.2 0-2.9 2.5-3.6 4.3-.1.2-.1.4-.1.6s0 .3.1.5c.2.7.8 1.3 1.5 1.3 1.8 0 2.9-3.9 2.9-5.4 0-.8-.2-1.3-.8-1.3z"></path><path d="m206.671429 158.518555c0 .1 0 .2-.1.2-.6.4-1.2.7-1.8.9-.4.1-.8.2-1.2.2-1.2.1-2.2-.7-2.3-1.9 0-.1 0-.3 0-.4 0-2.4 1.9-5.6 4.4-5.6 1.2 0 1.8.7 1.8 1.5-.1 1-.7 1.8-1.7 2.1-1 .4-2 .5-3 .4-.1.4-.2.9-.2 1.3 0 1.3.7 2 1.7 2 .3 0 .7-.1 1-.2.5-.1.9-.3 1.4-.5-.1 0 0 0 0 0zm-1.4-6.3c-1.1 0-2.1 1.5-2.5 3.4.7.1 1.4-.1 2.1-.4s1.2-1 1.3-1.8c0-.6-.2-1.2-.9-1.2z"></path><path d="m216.871429 152.018555s.1 0 0 0c.1 0 .3.1.3.3-.2.7-.7 3.2-1 4.3-.2.8-.4 2-.6 2.5 0 .2 0 .3.1.3.2 0 .5 0 .7-.1.1 0 .1.1.1.1-.5.3-1.1.4-1.7.4-.2 0-.3-.1-.3-.2s0-.2 0-.3c.1-.4.3-1.8.6-2.7l.1-.6h-.1c-.1.2-.2.4-.3.6-.8 1.5-2.1 3.4-3.6 3.4-1 0-1.5-.8-1.5-1.9 0-2.3 1.7-6 4.3-6 .6-.1 1.3.2 1.6.7.1.1.2.2.2.3h.1zm-2.7.2c-1.8 0-3 3.7-3 5.5 0 .9.3 1.4.9 1.4 1.3 0 2.7-2.7 3.3-4.4.1-.2.1-.4.1-.7 0-.1 0-.2 0-.4 0-.5-.4-1.4-1.3-1.4z"></path><path d="m226.271429 151.918555c.7 0 1.1.6 1.1 1.7-.2 1.9-.5 3.7-1 5.5-.1.2 0 .3.2.3s.5 0 .7-.1c.1 0 .1.1.1.1-.5.3-1.1.4-1.8.4-.2 0-.3-.1-.3-.2s0-.2 0-.3c.4-1.7.7-3.4.8-5.1 0-.8-.1-1.3-.7-1.3-1.1 0-2.9 2.7-3.5 4.5-.2.7-.4 1.3-.6 2-.1.2-.1.3-.4.3h-.6c-.1 0-.1 0-.1-.1.1-.6.5-2.9.7-4s.4-2.2.5-2.9c0-.3-.1-.4-.2-.4-.2 0-.4.1-.6.2-.1 0-.2-.1-.2-.2h.1c.6-.3 1.3-.5 2-.5.2 0 .4.2.3.5-.2.8-.5 2.4-.8 3.4 0 .2-.1.5-.2.6h.1c.1-.2.2-.4.3-.6.7-1.3 2.4-4 4.1-4z"></path><path d="m230.571429 158.518555c.3 0 .5.2.5.5 0 .3-.2.6-.6.6-.3 0-.5-.2-.5-.4-.1-.3.2-.6.6-.7z"></path><path d="m59.0714286 30.3185547c-8 1-18.3.8-18.1.4s3-2 8.9-3.2c5.6-1.1 15.5-2.3 17.2-4 3.6-3.6 5.1-14.99999995 6.1-17.79999995 1-2.6 2.5-6.00000001 2.9-5.7.4.29999999-.1.5-.7 3.8-.8 4.3-1.9 20.69999995-5 23.59999995-2.7 2.5-5.8 2.2-11.3 2.9z"></path><path d="m81.6714286 1.41855475c.5.3-.1 2.7 1.8 6.6 2.7 4.99999995 6.6 9.19999995 11.4 12.19999995 3.8 2.2 11.8000004 4.3 18.4000004 3.9 9.5-.6 11.5.5 11.5.5-1.6.1-3.2.2-4.8.5-4.4.6-15.9 2.8-23.5000004 0-6.2-2.3-13.9-9.3-14.7-16.69999995-.6-4.7-.6-7.3-.1-7z"></path><path d="m126.771429 26.2185547c-2 1.8-4.3 3.3-6.8 4.4-3.9 1.6-8.1 4.2-9.8 7.1s-2.4 9.3-.1 13.3 7.3 10 11.8 11.3c1.5.4 2 .4 1.4-.1-2.8-1.6-5.1-3.8-7-6.4-2.2-3.3-3-9.7-2.6-12.7.8-6.1 4.3-7.2 6.9-9.5 2.2-1.9 4.3-4 6.2-6.2.4-.4.3-.9 0-1.2z"></path><path d="m73.0714286 86.7185547c-.1-.5 1.7-2.3 3.4-5.2 1.9-3.2 4-7.1 5.6-9.1 3-3.7 8.7-10.7 12.7-11.1s12.5000004 2.4 16.9000004 3.6 6.3 1.4 8.5.9c3.2-.6 5.2-1.1 5.4-.7s-1.6.9-5.5 2.2c-2.9.7-6 1-9 .8-5.4-.2-12.0000004-1-13.9000004-.8-4 .5-9.8 6.5-12.6 9-3.9 3.7-8.1 8.8-9.5 9.7s-1.9 1.2-2 .7z"></path><path d="m41.8714286 33.6185547c-.2.6 13.7 6.7 17.7 9.8 1.9 1.5 9 7.3 10.6 15.4 1.4 7.2.2 19.8.3 21.5.2 3.3 0 3.9.5 4s1.6-7.5 2.1-10.7 3.8-16.1-.8-22.9c-10.8-16.2-30.3-17.7-30.4-17.1z"></path><path d="m88.3714286 35.6185547c.1.9-.5 1.7-1.4 1.9-.1 0-.2 0-.3 0-1.1 0-2.1-.9-2.2-2-.1-.9.5-1.7 1.3-1.9h.4c1.1 0 2 .9 2.2 2z"></path><path d="m84.8714286 30.8185547c.1.8-.4 1.5-1.2 1.6-.1 0-.2 0-.4 0-1-.1-1.8-.8-2-1.8-.1-.8.4-1.5 1.2-1.6h.4c1 .1 1.8.9 2 1.8z"></path><path d="m82.6714286 26.1185547c.1.7-.4 1.3-1.1 1.5-.1 0-.2 0-.4 0-.9-.1-1.7-.7-1.8-1.6-.1-.7.4-1.3 1.1-1.5h.4c.9 0 1.6.7 1.8 1.6z"></path><path d="m81.2714286 21.5185547c.1.5-.3 1.1-.8 1.2-.1 0-.2 0-.3 0-.7-.1-1.3-.6-1.5-1.3-.1-.5.3-1.1.8-1.2h.4c.7 0 1.3.6 1.4 1.3z"></path><path d="m80.2714286 16.8185547c.1.4-.2.9-.7.9-.1 0-.2 0-.2 0-.6-.1-1.1-.5-1.2-1.1-.1-.4.2-.8.6-.9h.3c.6.1 1.1.5 1.2 1.1z"></path><path d="m79.7714286 12.2185547c.1.3-.2.7-.5.7-.1 0-.2 0-.2 0-.5 0-.9-.4-1-.9 0-.4.2-.7.6-.7h.2c.4.1.8.5.9.9z"></path><path d="m92.9714286 39.3185547c-1.1.2-2.1-.5-2.5-1.5-.3-.8.1-1.8 1-2.1.1 0 .2-.1.3-.1 1.1-.1 2.1.5 2.5 1.5.3.9-.1 1.8-1 2.1-.1 0-.2 0-.3.1z"></path><path d="m97.1714286 36.6185547c-1 .2-1.9-.4-2.2-1.3-.3-.8.1-1.6.9-1.8.1 0 .2-.1.3-.1 1-.2 1.9.4 2.2 1.3.3.8-.1 1.6-.9 1.8-.1.1-.2.1-.3.1z"></path><path d="m101.671429 34.7185547c-.9.1-1.7000004-.4-2.0000004-1.2-.2-.7.1-1.4.8000004-1.6.1 0 .2-.1.3-.1.9-.1 1.7.4 2 1.2.2.7-.1 1.4-.8 1.6-.1.1-.2.1-.3.1z"></path><path d="m105.871429 33.1185547c-.7.2-1.4-.1-1.7-.8-.3-.5-.1-1.1.4-1.4.1 0 .2-.1.2-.1.7-.2 1.4.1 1.7.8.3.5.1 1.1-.4 1.4 0 .1-.1.1-.2.1z"></path><path d="m110.471429 31.5185547c-.5.1-1.1-.1-1.4-.6-.2-.4-.1-.9.3-1.1.1 0 .1-.1.2-.1.5-.1 1.1.1 1.4.6.2.4 0 .9-.4 1.1 0 0 0 0-.1.1z"></path><path d="m115.271429 30.1185547c-.4.1-.9-.1-1.1-.5-.2-.3 0-.7.3-.9.1 0 .1 0 .2-.1.4-.1.9.1 1.1.5.2.3 0 .7-.3.8-.1.2-.1.2-.2.2z"></path><path d="m84.7714286 44.3185547c.6-.8 1.8-1.1 2.6-.5h.1c.9.6 1.3 1.8.7 2.7-.6.8-1.8 1.1-2.6.5 0 0 0 0-.1 0-.9-.5-1.2-1.7-.7-2.7z"></path><path d="m83.9714286 49.5185547c.5-.8 1.6-1 2.3-.5h.1c.8.5 1.1 1.6.7 2.5-.5.8-1.6 1-2.3.5 0 0 0 0-.1 0-.9-.6-1.2-1.6-.7-2.5z"></path><path d="m82.6714286 54.2185547c.4-.7 1.4-.9 2.1-.5 0 0 .1 0 .1.1.8.5 1 1.4.6 2.2-.4.7-1.3.9-2 .5 0 0-.1 0-.1-.1-.8-.4-1.1-1.4-.7-2.2z"></path><path d="m81.3714286 58.8185547c.3-.6 1.1-.8 1.6-.4 0 0 .1 0 .1.1.6.4.8 1.2.5 1.8s-1.1.8-1.6.4c0 0-.1 0-.1-.1-.6-.3-.8-1.1-.5-1.8z"></path><path d="m79.7714286 63.4185547c.2-.5.7-.8 1.2-.6 0 0 .1 0 .1.1.5.2.8.9.7 1.4-.2.5-.7.8-1.2.6 0 0-.1 0-.1-.1-.6-.2-.9-.8-.7-1.4z"></path><path d="m77.9714286 67.7185547c.1-.4.6-.6 1-.5.4.2.7.7.5 1.2-.1.4-.5.6-.9.5h-.1c-.4-.3-.6-.8-.5-1.2z"></path><path d="m57.7714286 35.2185547c-.5-.2-.8-.7-.7-1.2.1-.4.5-.6.9-.5 0 0 .1 0 .1.1.5.2.7.7.7 1.2-.1.4-.5.6-.8.5-.1 0-.2-.1-.2-.1z"></path><path d="m62.7714286 35.8185547c-.6-.2-.9-.8-.8-1.5.1-.5.6-.8 1.1-.6.1 0 .1 0 .2.1.6.2.9.8.8 1.5-.1.4-.6.7-1.1.6-.1 0-.1 0-.2-.1z"></path><path d="m67.7714286 36.9185547c-.7-.3-1.1-1-1-1.8.2-.6.7-.9 1.3-.8.1 0 .2.1.2.1.7.3 1.1 1 1 1.8-.2.6-.8.9-1.4.8 0-.1-.1-.1-.1-.1z"></path><path d="m72.6714286 38.3185547c-.9-.3-1.4-1.1-1.4-2 .1-.7.8-1.3 1.5-1.2.1 0 .2 0 .3.1.9.3 1.4 1.1 1.4 2-.1.7-.8 1.3-1.5 1.1-.1.1-.2.1-.3 0z"></path><path d="m77.1714286 40.0185547c-1-.3-1.6-1.2-1.5-2.2.1-.8.9-1.4 1.7-1.2.1 0 .2 0 .3.1 1 .3 1.6 1.2 1.5 2.2-.1.8-.9 1.4-1.7 1.3-.1-.1-.2-.2-.3-.2z"></path><path d="m81.6714286 42.0185547c-1.1-.3-1.8-1.3-1.7-2.4.1-.9 1-1.6 1.9-1.4.1 0 .2 0 .3.1 1.1.3 1.8 1.3 1.7 2.4-.2.9-1 1.6-2 1.4 0-.1-.1-.1-.2-.1z"></path><path d="m110.871429 59.3185547c.3.3.3.8 0 1.1-.3.3-.8.3-1.2 0-.3-.3-.3-.8 0-1.1.3-.3.8-.3 1.2 0z"></path><path d="m106.971429 56.6185547c.4.4.4.9.1 1.3 0 0 0 0-.1.1-.4.4-1 .4-1.4 0-.4-.4-.4-.9-.1-1.3 0 0 0 0 .1-.1.4-.4 1-.4 1.4 0z"></path><path d="m103.671429 53.7185547c.5.4.5 1.2.1 1.6 0 0 0 0-.1.1-.5.5-1.3.4-1.8-.1s-.5-1.2 0-1.7c.6-.4 1.4-.4 1.8.1z"></path><path d="m100.371429 50.5185547c.6.5.6 1.4.1 2 0 0-.1.1-.1.1-.7000004.6-1.6000004.5-2.2000004-.1s-.6-1.5-.1-2.1c0 0 0 0 .1-.1.6-.5 1.6-.4 2.2000004.2z"></path><path d="m96.9714286 47.1185547c.7.6.7 1.6.1 2.3 0 0-.1.1-.1.1-.7.6-1.8.5-2.5-.2-.7-.6-.7-1.7-.1-2.3 0 0 0 0 .1-.1.8-.6 1.9-.5 2.5.2z"></path><path d="m93.7714286 43.2185547c.7.7.8 1.8.1 2.6 0 0-.1.1-.1.1-.8.7-2.1.6-2.8-.2-.7-.7-.8-1.8-.1-2.6 0 0 .1-.1.1-.1.9-.7 2.1-.6 2.8.2z"></path></g></svg>